<svg width="16" height="8" viewBox="0 0 16 8" fill="none" xmlns="http://www.w3.org/2000/svg">
<path fill-rule="evenodd" clip-rule="evenodd" d="M6.66667 7.33333C6.66667 7.73333 6.4 8 6 8H4C1.8 8 0 6.2 0 4C0 1.8 1.8 0 4 0H6C6.4 0 6.66667 0.266667 6.66667 0.666667C6.66667 1.06667 6.4 1.33333 6 1.33333H4C2.53333 1.33333 1.33333 2.53333 1.33333 4C1.33333 5.46667 2.53333 6.66667 4 6.66667H6C6.4 6.66667 6.66667 6.93333 6.66667 7.33333ZM12 0H10C9.6 0 9.33333 0.266667 9.33333 0.666667C9.33333 1.06667 9.6 1.33333 10 1.33333H12C13.4667 1.33333 14.6667 2.53333 14.6667 4C14.6667 5.46667 13.4667 6.66667 12 6.66667H10C9.6 6.66667 9.33333 6.93333 9.33333 7.33333C9.33333 7.73333 9.6 8 10 8H12C14.2 8 16 6.2 16 4C16 1.8 14.2 0 12 0ZM5.33333 4.66667C4.93333 4.66667 4.66667 4.4 4.66667 4C4.66667 3.6 4.93333 3.33333 5.33333 3.33333H10.6667C11.0667 3.33333 11.3333 3.6 11.3333 4C11.3333 4.4 11.0667 4.66667 10.6667 4.66667H5.33333Z" fill="black"/>
</svg>
