<svg width="14" height="14" viewBox="0 0 14 14" fill="none" xmlns="http://www.w3.org/2000/svg">
<path d="M13.6321 7.75V13C13.6321 13.45 13.3325 13.75 12.883 13.75C12.4336 13.75 12.1339 13.45 12.1339 13V7.75C12.1339 6.475 11.1601 5.5 9.88662 5.5H2.69522L5.16726 7.975C5.4669 8.275 5.4669 8.725 5.16726 9.025C5.01744 9.175 4.86762 9.25 4.64289 9.25C4.41816 9.25 4.26834 9.175 4.11852 9.025L0.372996 5.275C0.298085 5.2 0.223175 5.125 0.223175 5.05C0.148265 4.825 0.148265 4.675 0.223175 4.45C0.298085 4.375 0.298085 4.3 0.372996 4.225L4.11852 0.475C4.41816 0.175 4.86762 0.175 5.16726 0.475C5.4669 0.775 5.4669 1.225 5.16726 1.525L2.69522 4H9.88662C11.9841 4 13.6321 5.65 13.6321 7.75Z" fill="#7367F0"/>
</svg>
