<svg width="21" height="20" viewBox="0 0 21 20" fill="none" xmlns="http://www.w3.org/2000/svg">
<path fill-rule="evenodd" clip-rule="evenodd" d="M12.7447 13.5C13.3273 12.9167 14.1596 12.5 15.0752 12.5C16.9064 12.5 18.4046 14 18.4046 15.8334C18.4046 17.6667 16.9064 19.1667 15.0752 19.1667C13.2441 19.1667 11.7459 17.6667 11.7459 15.8334C11.7459 15.6667 11.7667 15.5209 11.7875 15.3751L11.7875 15.375L11.7875 15.375C11.8083 15.2292 11.8291 15.0834 11.8291 14.9167L7.41771 12.3334C6.83507 12.9167 6.00274 13.3334 5.08716 13.3334C3.25602 13.3334 1.75781 11.8334 1.75781 10C1.75781 8.16671 3.25602 6.66671 5.08716 6.66671C6.00274 6.66671 6.83507 7.08337 7.41771 7.66671L11.9123 5.08337C11.8981 5.02618 11.8838 4.97145 11.8699 4.91832L11.8699 4.91831C11.803 4.6618 11.7459 4.44285 11.7459 4.16671C11.7459 2.33337 13.2441 0.833374 15.0752 0.833374C16.9064 0.833374 18.4046 2.33337 18.4046 4.16671C18.4046 6.00004 16.9064 7.50004 15.0752 7.50004C14.1596 7.50004 13.3273 7.08337 12.6614 6.50004L8.25005 9.08337C8.2643 9.14046 8.27856 9.1951 8.29239 9.24813L8.29245 9.24834L8.29247 9.24843C8.35939 9.50495 8.41651 9.7239 8.41651 10C8.41651 10.1667 8.39571 10.3125 8.3749 10.4584C8.35409 10.6042 8.33328 10.75 8.33328 10.9167L12.7447 13.5ZM16.7399 4.16671C16.7399 3.25004 15.9908 2.50004 15.0752 2.50004C14.1596 2.50004 13.4105 3.25004 13.4105 4.16671C13.4105 5.08337 14.1596 5.83337 15.0752 5.83337C15.9908 5.83337 16.7399 5.08337 16.7399 4.16671ZM5.08716 11.6667C4.17159 11.6667 3.42249 10.9167 3.42249 10C3.42249 9.08337 4.17159 8.33337 5.08716 8.33337C6.00274 8.33337 6.75184 9.08337 6.75184 10C6.75184 10.9167 6.00274 11.6667 5.08716 11.6667ZM13.4105 15.8334C13.4105 16.75 14.1596 17.5 15.0752 17.5C15.9908 17.5 16.7399 16.75 16.7399 15.8334C16.7399 14.9167 15.9908 14.1667 15.0752 14.1667C14.4926 14.1667 13.9099 14.5 13.6602 15C13.4938 15.25 13.4105 15.5 13.4105 15.8334Z" fill="black"/>
<mask id="mask0_0_14379" style="mask-type:luminance" maskUnits="userSpaceOnUse" x="1" y="0" width="18" height="20">
<path fill-rule="evenodd" clip-rule="evenodd" d="M12.7447 13.5C13.3273 12.9167 14.1596 12.5 15.0752 12.5C16.9064 12.5 18.4046 14 18.4046 15.8334C18.4046 17.6667 16.9064 19.1667 15.0752 19.1667C13.2441 19.1667 11.7459 17.6667 11.7459 15.8334C11.7459 15.6667 11.7667 15.5209 11.7875 15.3751L11.7875 15.375L11.7875 15.375C11.8083 15.2292 11.8291 15.0834 11.8291 14.9167L7.41771 12.3334C6.83507 12.9167 6.00274 13.3334 5.08716 13.3334C3.25602 13.3334 1.75781 11.8334 1.75781 10C1.75781 8.16671 3.25602 6.66671 5.08716 6.66671C6.00274 6.66671 6.83507 7.08337 7.41771 7.66671L11.9123 5.08337C11.8981 5.02618 11.8838 4.97145 11.8699 4.91832L11.8699 4.91831C11.803 4.6618 11.7459 4.44285 11.7459 4.16671C11.7459 2.33337 13.2441 0.833374 15.0752 0.833374C16.9064 0.833374 18.4046 2.33337 18.4046 4.16671C18.4046 6.00004 16.9064 7.50004 15.0752 7.50004C14.1596 7.50004 13.3273 7.08337 12.6614 6.50004L8.25005 9.08337C8.2643 9.14046 8.27856 9.1951 8.29239 9.24813L8.29245 9.24834L8.29247 9.24843C8.35939 9.50495 8.41651 9.7239 8.41651 10C8.41651 10.1667 8.39571 10.3125 8.3749 10.4584C8.35409 10.6042 8.33328 10.75 8.33328 10.9167L12.7447 13.5ZM16.7399 4.16671C16.7399 3.25004 15.9908 2.50004 15.0752 2.50004C14.1596 2.50004 13.4105 3.25004 13.4105 4.16671C13.4105 5.08337 14.1596 5.83337 15.0752 5.83337C15.9908 5.83337 16.7399 5.08337 16.7399 4.16671ZM5.08716 11.6667C4.17159 11.6667 3.42249 10.9167 3.42249 10C3.42249 9.08337 4.17159 8.33337 5.08716 8.33337C6.00274 8.33337 6.75184 9.08337 6.75184 10C6.75184 10.9167 6.00274 11.6667 5.08716 11.6667ZM13.4105 15.8334C13.4105 16.75 14.1596 17.5 15.0752 17.5C15.9908 17.5 16.7399 16.75 16.7399 15.8334C16.7399 14.9167 15.9908 14.1667 15.0752 14.1667C14.4926 14.1667 13.9099 14.5 13.6602 15C13.4938 15.25 13.4105 15.5 13.4105 15.8334Z" fill="white"/>
</mask>
<g mask="url(#mask0_0_14379)">
<rect x="0.0927734" width="19.9761" height="20" fill="#6E6B7B"/>
</g>
</svg>
