<svg width="361" height="91" viewBox="0 0 361 91" fill="none" xmlns="http://www.w3.org/2000/svg">
<path opacity="0.6" fill-rule="evenodd" clip-rule="evenodd" d="M0.643921 50.2782C0.643921 50.2782 12.4653 48.4811 23.868 33.7814C35.2706 19.0816 45.3952 7.48594 45.3952 7.48594C45.3952 7.48594 60.8411 -7.48594 73.2752 7.48594C85.7093 22.4578 110.587 66.1574 110.587 66.1574C110.587 66.1574 123.998 78.2678 137.422 58.3252C150.846 38.3826 167.768 8.7556 167.768 8.7556C167.768 8.7556 179.427 -7.7588 194.16 10.5519C208.893 28.8626 219.711 58.3252 219.711 58.3252C219.711 58.3252 235.925 96.2332 257.86 69.0319C279.795 41.8306 279.979 40.198 279.979 40.198C279.979 40.198 299.638 16.6391 323.747 43.3797C347.855 70.1204 360.18 70.4248 360.18 70.4248V90.9225H0.643921V50.2782Z" fill="url(#paint0_linear_26669_39248)"/>
<defs>
<linearGradient id="paint0_linear_26669_39248" x1="0.643921" y1="0" x2="0.643921" y2="90.9225" gradientUnits="userSpaceOnUse">
<stop stop-color="#FF9920"/>
<stop offset="1" stop-color="#EEEEEE" stop-opacity="0.01"/>
</linearGradient>
</defs>
</svg>
