<svg width="263" height="75" viewBox="0 0 263 75" fill="none" xmlns="http://www.w3.org/2000/svg">
<path d="M1.01514 73.3741C1.01514 73.3741 12.2356 70.0184 20.5318 60.432C28.828 50.8456 38.5029 41.8698 55.8274 46.7772C73.1519 51.6846 77.7506 53.1323 77.7506 53.1323C77.7506 53.1323 94.0517 59.2323 105.121 42.2033C116.791 25.6331 126.439 20.1353 126.439 20.1353C126.439 20.1353 136.226 15.4664 145.495 25.6042C154.765 35.742 163.975 44.892 163.975 44.892C163.975 44.892 177.412 55.8334 185.795 42.2033C194.178 28.5733 204.031 12.9962 204.031 12.9962C204.031 12.9962 213.921 -4.99809 233.837 3.99904C253.752 12.9962 262.205 12.9962 262.205 12.9962" stroke="#7466F0" stroke-width="2"/>
</svg>
