<svg width="262" height="94" viewBox="0 0 262 94" fill="none" xmlns="http://www.w3.org/2000/svg">
<g opacity="0.6">
<path fill-rule="evenodd" clip-rule="evenodd" d="M0.0151367 72.3741C0.0151367 72.3741 11.2356 69.0183 19.5318 59.432C27.828 49.8456 37.5029 40.8698 54.8274 45.7772C72.1519 50.6846 76.7506 52.1323 76.7506 52.1323C76.7506 52.1323 93.0517 58.2323 104.121 41.2033C115.791 24.6331 125.439 19.1353 125.439 19.1353C125.439 19.1353 135.226 14.4664 144.495 24.6042C153.765 34.742 162.975 43.892 162.975 43.892C162.975 43.892 176.412 54.8334 184.795 41.2033C193.178 27.5733 203.031 11.9962 203.031 11.9962C203.031 11.9962 212.921 -5.99809 232.837 2.99904C252.752 11.9962 261.205 11.9962 261.205 11.9962V87.9086C261.205 91.2223 258.519 93.9086 255.205 93.9086H6.01515C2.70144 93.9086 0.0151367 91.2223 0.0151367 87.9086V72.3741Z" fill="url(#paint0_linear_26669_34936)"/>
<path fill-rule="evenodd" clip-rule="evenodd" d="M0.0151367 72.3741C0.0151367 72.3741 11.2356 69.0183 19.5318 59.432C27.828 49.8456 37.5029 40.8698 54.8274 45.7772C72.1519 50.6846 76.7506 52.1323 76.7506 52.1323C76.7506 52.1323 93.0517 58.2323 104.121 41.2033C115.791 24.6331 125.439 19.1353 125.439 19.1353C125.439 19.1353 135.226 14.4664 144.495 24.6042C153.765 34.742 162.975 43.892 162.975 43.892C162.975 43.892 176.412 54.8334 184.795 41.2033C193.178 27.5733 203.031 11.9962 203.031 11.9962C203.031 11.9962 212.921 -5.99809 232.837 2.99904C252.752 11.9962 261.205 11.9962 261.205 11.9962V87.9086C261.205 91.2223 258.519 93.9086 255.205 93.9086H6.01515C2.70144 93.9086 0.0151367 91.2223 0.0151367 87.9086V72.3741Z" fill="url(#paint1_linear_26669_34936)"/>
</g>
<defs>
<linearGradient id="paint0_linear_26669_34936" x1="0.0151367" y1="0" x2="0.0151367" y2="93.9086" gradientUnits="userSpaceOnUse">
<stop stop-color="#7466F0"/>
<stop offset="1" stop-color="white" stop-opacity="0.01"/>
</linearGradient>
<linearGradient id="paint1_linear_26669_34936" x1="0.0151367" y1="0" x2="0.0151367" y2="93.9086" gradientUnits="userSpaceOnUse">
<stop offset="0.0114183" stop-color="white" stop-opacity="0.01"/>
<stop offset="1" stop-opacity="0.01"/>
</linearGradient>
</defs>
</svg>
