<svg width="20" height="28" viewBox="0 0 20 28" fill="none" xmlns="http://www.w3.org/2000/svg">
<path fill-rule="evenodd" clip-rule="evenodd" d="M19.3332 9.31393C19.3332 4.19127 15.1332 0 9.99984 0C4.8665 0 0.666504 4.19127 0.666504 9.31393C0.666504 12.341 2.0665 15.0187 4.28317 16.6486L2.99984 26.6611C2.88317 27.1268 3.1165 27.5925 3.4665 27.8254C3.8165 28.0582 4.28317 28.0582 4.74984 27.8254L9.99984 24.6819L15.2498 27.8254C15.3665 27.9418 15.5998 27.9418 15.8332 27.9418C16.0665 27.9418 16.2998 27.8254 16.4165 27.7089C16.7665 27.4761 16.9998 27.0104 16.8832 26.5447L15.5998 16.6486C17.9332 15.0187 19.3332 12.341 19.3332 9.31393ZM2.99984 9.31393C2.99984 5.47193 6.14984 2.32848 9.99984 2.32848C13.8498 2.32848 16.9998 5.47193 16.9998 9.31393C16.9998 13.1559 13.8498 16.2994 9.99984 16.2994C6.14984 16.2994 2.99984 13.1559 2.99984 9.31393ZM10.5832 22.3534L14.3165 24.5655L13.4998 17.9293C12.4498 18.395 11.2832 18.6279 9.99984 18.6279C8.7165 18.6279 7.54984 18.395 6.49984 17.9293L5.68317 24.5655L9.4165 22.3534C9.7665 22.1206 10.2332 22.1206 10.5832 22.3534Z" fill="white"/>
</svg>
