<svg width="17" height="16" viewBox="0 0 17 16" fill="none" xmlns="http://www.w3.org/2000/svg">
<path fill-rule="evenodd" clip-rule="evenodd" d="M3.68715 1.33333H1.58857C1.22414 1.33333 0.928711 1.03486 0.928711 0.666667C0.928711 0.298477 1.22414 0 1.58857 0H4.22803C4.54254 0 4.81334 0.224257 4.87506 0.535829L5.42927 3.33333H16.1056C16.5196 3.33333 16.8313 3.71402 16.7538 4.12489L15.697 9.72321C15.5102 10.6734 14.6762 11.3518 13.7301 11.3333L7.32884 11.3332C6.37011 11.3518 5.53606 10.6734 5.34943 9.72417L4.24703 4.15947C4.24256 4.14106 4.23884 4.12236 4.23592 4.10338L3.68715 1.33333ZM5.54776 14.0011C5.54776 14.8017 6.07522 15.3355 6.86641 15.3355C7.6576 15.3355 8.18506 14.8017 8.18506 14.0011C8.18506 13.2004 7.6576 12.6667 6.86641 12.6667C6.07522 12.6667 5.54776 13.2004 5.54776 14.0011ZM12.8063 14C12.8063 14.8 13.3337 15.3333 14.1249 15.3333C14.9161 15.3333 15.4436 14.8 15.4436 14C15.4436 13.2 14.9161 12.6667 14.1249 12.6667C13.3337 12.6667 12.8063 13.2 12.8063 14ZM6.6437 9.46346L5.69342 4.66667H15.308L14.4016 9.46845C14.3403 9.7802 14.0623 10.0063 13.7427 10.0001L7.3162 10C6.98398 10.0063 6.70597 9.7802 6.6437 9.46346Z" fill="black"/>
<mask id="mask0_0_14423" style="mask-type:luminance" maskUnits="userSpaceOnUse" x="0" y="0" width="17" height="16">
<path fill-rule="evenodd" clip-rule="evenodd" d="M3.68715 1.33333H1.58857C1.22414 1.33333 0.928711 1.03486 0.928711 0.666667C0.928711 0.298477 1.22414 0 1.58857 0H4.22803C4.54254 0 4.81334 0.224257 4.87506 0.535829L5.42927 3.33333H16.1056C16.5196 3.33333 16.8313 3.71402 16.7538 4.12489L15.697 9.72321C15.5102 10.6734 14.6762 11.3518 13.7301 11.3333L7.32884 11.3332C6.37011 11.3518 5.53606 10.6734 5.34943 9.72417L4.24703 4.15947C4.24256 4.14106 4.23884 4.12236 4.23592 4.10338L3.68715 1.33333ZM5.54776 14.0011C5.54776 14.8017 6.07522 15.3355 6.86641 15.3355C7.6576 15.3355 8.18506 14.8017 8.18506 14.0011C8.18506 13.2004 7.6576 12.6667 6.86641 12.6667C6.07522 12.6667 5.54776 13.2004 5.54776 14.0011ZM12.8063 14C12.8063 14.8 13.3337 15.3333 14.1249 15.3333C14.9161 15.3333 15.4436 14.8 15.4436 14C15.4436 13.2 14.9161 12.6667 14.1249 12.6667C13.3337 12.6667 12.8063 13.2 12.8063 14ZM6.6437 9.46346L5.69342 4.66667H15.308L14.4016 9.46845C14.3403 9.7802 14.0623 10.0063 13.7427 10.0001L7.3162 10C6.98398 10.0063 6.70597 9.7802 6.6437 9.46346Z" fill="white"/>
</mask>
<g mask="url(#mask0_0_14423)">
<rect x="0.928711" width="15.8367" height="16" fill="#28C76F"/>
</g>
</svg>
