<svg width="17" height="16" viewBox="0 0 17 16" fill="none" xmlns="http://www.w3.org/2000/svg">
<path fill-rule="evenodd" clip-rule="evenodd" d="M11.4861 9.33337H12.8059C14.2576 9.33337 15.4453 10.5334 15.4453 12C15.4453 13.4667 14.2576 14.6667 12.8059 14.6667C11.3542 14.6667 10.1664 13.4667 10.1664 12V10.6667H7.52696V12C7.52696 13.4667 6.3392 14.6667 4.8875 14.6667C3.4358 14.6667 2.24805 13.4667 2.24805 12C2.24805 10.5334 3.4358 9.33337 4.8875 9.33337H6.20723V6.66671H4.8875C3.4358 6.66671 2.24805 5.46671 2.24805 4.00004C2.24805 2.53337 3.4358 1.33337 4.8875 1.33337C6.3392 1.33337 7.52696 2.53337 7.52696 4.00004V5.33337H10.1664V4.00004C10.1664 2.53337 11.3542 1.33337 12.8059 1.33337C14.2576 1.33337 15.4453 2.53337 15.4453 4.00004C15.4453 5.46671 14.2576 6.66671 12.8059 6.66671H11.4861V9.33337ZM12.8059 2.66671C12.08 2.66671 11.4861 3.26671 11.4861 4.00004V5.33337H12.8059C13.5317 5.33337 14.1256 4.73337 14.1256 4.00004C14.1256 3.26671 13.5317 2.66671 12.8059 2.66671ZM6.20723 12C6.20723 12.7334 5.61335 13.3334 4.8875 13.3334C4.16165 13.3334 3.56777 12.7334 3.56777 12C3.56777 11.2667 4.16165 10.6667 4.8875 10.6667H6.20723V12ZM4.8875 5.33337H6.20723V4.00004C6.20723 3.26671 5.61335 2.66671 4.8875 2.66671C4.16165 2.66671 3.56777 3.26671 3.56777 4.00004C3.56777 4.73337 4.16165 5.33337 4.8875 5.33337ZM10.1664 9.33337H7.52696V6.66671H10.1664V9.33337ZM11.4861 12C11.4861 12.7334 12.08 13.3334 12.8059 13.3334C13.5317 13.3334 14.1256 12.7334 14.1256 12C14.1256 11.2667 13.5317 10.6667 12.8059 10.6667H11.4861V12Z" fill="black"/>
<mask id="mask0_0_14427" style="mask-type:luminance" maskUnits="userSpaceOnUse" x="2" y="1" width="14" height="14">
<path fill-rule="evenodd" clip-rule="evenodd" d="M11.4861 9.33337H12.8059C14.2576 9.33337 15.4453 10.5334 15.4453 12C15.4453 13.4667 14.2576 14.6667 12.8059 14.6667C11.3542 14.6667 10.1664 13.4667 10.1664 12V10.6667H7.52696V12C7.52696 13.4667 6.3392 14.6667 4.8875 14.6667C3.4358 14.6667 2.24805 13.4667 2.24805 12C2.24805 10.5334 3.4358 9.33337 4.8875 9.33337H6.20723V6.66671H4.8875C3.4358 6.66671 2.24805 5.46671 2.24805 4.00004C2.24805 2.53337 3.4358 1.33337 4.8875 1.33337C6.3392 1.33337 7.52696 2.53337 7.52696 4.00004V5.33337H10.1664V4.00004C10.1664 2.53337 11.3542 1.33337 12.8059 1.33337C14.2576 1.33337 15.4453 2.53337 15.4453 4.00004C15.4453 5.46671 14.2576 6.66671 12.8059 6.66671H11.4861V9.33337ZM12.8059 2.66671C12.08 2.66671 11.4861 3.26671 11.4861 4.00004V5.33337H12.8059C13.5317 5.33337 14.1256 4.73337 14.1256 4.00004C14.1256 3.26671 13.5317 2.66671 12.8059 2.66671ZM6.20723 12C6.20723 12.7334 5.61335 13.3334 4.8875 13.3334C4.16165 13.3334 3.56777 12.7334 3.56777 12C3.56777 11.2667 4.16165 10.6667 4.8875 10.6667H6.20723V12ZM4.8875 5.33337H6.20723V4.00004C6.20723 3.26671 5.61335 2.66671 4.8875 2.66671C4.16165 2.66671 3.56777 3.26671 3.56777 4.00004C3.56777 4.73337 4.16165 5.33337 4.8875 5.33337ZM10.1664 9.33337H7.52696V6.66671H10.1664V9.33337ZM11.4861 12C11.4861 12.7334 12.08 13.3334 12.8059 13.3334C13.5317 13.3334 14.1256 12.7334 14.1256 12C14.1256 11.2667 13.5317 10.6667 12.8059 10.6667H11.4861V12Z" fill="white"/>
</mask>
<g mask="url(#mask0_0_14427)">
<rect x="0.928711" width="15.8367" height="16" fill="#EA5455"/>
</g>
</svg>
