<svg width="17" height="16" viewBox="0 0 17 16" fill="none" xmlns="http://www.w3.org/2000/svg">
<path fill-rule="evenodd" clip-rule="evenodd" d="M11.3545 9.34358H14.1259C14.5218 9.34358 14.7858 9.61025 14.7858 10.0103C14.7858 10.4103 14.5218 10.6769 14.1259 10.6769H11.2225L10.8266 14.0769C10.7606 14.4103 10.4966 14.6769 10.1667 14.6769H10.1007C9.7048 14.6103 9.44086 14.2769 9.50684 13.9436L9.90276 10.6769H7.26331L6.86739 14.0769C6.8014 14.4103 6.53746 14.6769 6.20752 14.6769H6.14154C5.74562 14.6103 5.48167 14.2769 5.54766 13.9436L5.87759 10.6769H3.56807C3.17215 10.6769 2.9082 10.4103 2.9082 10.0103C2.9082 9.61025 3.17215 9.34358 3.56807 9.34358H6.07555L6.3395 6.67692H3.56807C3.17215 6.67692 2.9082 6.41025 2.9082 6.01025C2.9082 5.61025 3.17215 5.34358 3.56807 5.34358H6.47147L6.86739 1.94358C6.93337 1.54358 7.26331 1.27692 7.59324 1.34358C7.98916 1.41025 8.2531 1.74358 8.18712 2.07692L7.7912 5.34358H10.4307L10.8266 1.94358C10.8926 1.54358 11.2225 1.27692 11.5524 1.34358C11.9483 1.41025 12.2123 1.74358 12.1463 2.07692L11.8164 5.34358H14.1259C14.5218 5.34358 14.7858 5.61025 14.7858 6.01025C14.7858 6.41025 14.5218 6.67692 14.1259 6.67692H11.6184L11.3545 9.34358ZM7.65921 6.67691L7.39526 9.34358H10.0347L10.2987 6.67691H7.65921Z" fill="black"/>
<mask id="mask0_0_14431" style="mask-type:luminance" maskUnits="userSpaceOnUse" x="2" y="1" width="13" height="14">
<path fill-rule="evenodd" clip-rule="evenodd" d="M11.3545 9.34358H14.1259C14.5218 9.34358 14.7858 9.61025 14.7858 10.0103C14.7858 10.4103 14.5218 10.6769 14.1259 10.6769H11.2225L10.8266 14.0769C10.7606 14.4103 10.4966 14.6769 10.1667 14.6769H10.1007C9.7048 14.6103 9.44086 14.2769 9.50684 13.9436L9.90276 10.6769H7.26331L6.86739 14.0769C6.8014 14.4103 6.53746 14.6769 6.20752 14.6769H6.14154C5.74562 14.6103 5.48167 14.2769 5.54766 13.9436L5.87759 10.6769H3.56807C3.17215 10.6769 2.9082 10.4103 2.9082 10.0103C2.9082 9.61025 3.17215 9.34358 3.56807 9.34358H6.07555L6.3395 6.67692H3.56807C3.17215 6.67692 2.9082 6.41025 2.9082 6.01025C2.9082 5.61025 3.17215 5.34358 3.56807 5.34358H6.47147L6.86739 1.94358C6.93337 1.54358 7.26331 1.27692 7.59324 1.34358C7.98916 1.41025 8.2531 1.74358 8.18712 2.07692L7.7912 5.34358H10.4307L10.8266 1.94358C10.8926 1.54358 11.2225 1.27692 11.5524 1.34358C11.9483 1.41025 12.2123 1.74358 12.1463 2.07692L11.8164 5.34358H14.1259C14.5218 5.34358 14.7858 5.61025 14.7858 6.01025C14.7858 6.41025 14.5218 6.67692 14.1259 6.67692H11.6184L11.3545 9.34358ZM7.65921 6.67691L7.39526 9.34358H10.0347L10.2987 6.67691H7.65921Z" fill="white"/>
</mask>
<g mask="url(#mask0_0_14431)">
<rect x="0.928711" width="15.8367" height="16" fill="#00CFE8"/>
</g>
</svg>
