<svg width="17" height="16" viewBox="0 0 17 16" fill="none" xmlns="http://www.w3.org/2000/svg">
<path fill-rule="evenodd" clip-rule="evenodd" d="M16.4355 4.06663C16.2376 3.93329 15.9736 3.99996 15.7757 4.13329L12.1464 6.73329V4.66663C12.1464 3.53329 11.2886 2.66663 10.1668 2.66663H2.9083C1.78653 2.66663 0.928711 3.53329 0.928711 4.66663V11.3333C0.928711 12.4666 1.78653 13.3333 2.9083 13.3333H10.1668C11.2886 13.3333 12.1464 12.4666 12.1464 11.3333V9.26663L15.7097 11.8666C15.8416 11.9333 15.9736 12 16.1056 12C16.2376 12 16.3035 12 16.4355 11.9333C16.6335 11.8 16.7654 11.6 16.7654 11.3333V4.66663C16.7654 4.39996 16.6335 4.19996 16.4355 4.06663ZM10.8267 11.3333C10.8267 11.7333 10.5627 12 10.1668 12H2.9083C2.51238 12 2.24844 11.7333 2.24844 11.3333V4.66663C2.24844 4.26663 2.51238 3.99996 2.9083 3.99996H10.1668C10.5627 3.99996 10.8267 4.26663 10.8267 4.66663V11.3333ZM12.6083 7.99996L15.4457 10.0666V5.93329L12.6083 7.99996Z" fill="black"/>
<mask id="mask0_0_14435" style="mask-type:luminance" maskUnits="userSpaceOnUse" x="0" y="2" width="17" height="12">
<path fill-rule="evenodd" clip-rule="evenodd" d="M16.4355 4.06663C16.2376 3.93329 15.9736 3.99996 15.7757 4.13329L12.1464 6.73329V4.66663C12.1464 3.53329 11.2886 2.66663 10.1668 2.66663H2.9083C1.78653 2.66663 0.928711 3.53329 0.928711 4.66663V11.3333C0.928711 12.4666 1.78653 13.3333 2.9083 13.3333H10.1668C11.2886 13.3333 12.1464 12.4666 12.1464 11.3333V9.26663L15.7097 11.8666C15.8416 11.9333 15.9736 12 16.1056 12C16.2376 12 16.3035 12 16.4355 11.9333C16.6335 11.8 16.7654 11.6 16.7654 11.3333V4.66663C16.7654 4.39996 16.6335 4.19996 16.4355 4.06663ZM10.8267 11.3333C10.8267 11.7333 10.5627 12 10.1668 12H2.9083C2.51238 12 2.24844 11.7333 2.24844 11.3333V4.66663C2.24844 4.26663 2.51238 3.99996 2.9083 3.99996H10.1668C10.5627 3.99996 10.8267 4.26663 10.8267 4.66663V11.3333ZM12.6083 7.99996L15.4457 10.0666V5.93329L12.6083 7.99996Z" fill="white"/>
</mask>
<g mask="url(#mask0_0_14435)">
<rect x="0.928711" width="15.8367" height="16" fill="#FF9F43"/>
</g>
</svg>
