<svg width="17" height="16" viewBox="0 0 17 16" fill="none" xmlns="http://www.w3.org/2000/svg">
<path fill-rule="evenodd" clip-rule="evenodd" d="M14.1262 8C14.1262 6.46667 13.4663 5.13333 12.4765 4.13333L12.2786 1.8C12.1466 0.8 11.3548 0 10.299 0H7.39557C6.40577 0 5.54795 0.8 5.41598 1.8L5.21802 4.13333C4.22822 5.06667 3.56836 6.46667 3.56836 8C3.56836 9.53333 4.22822 10.9333 5.21802 11.8667L5.41598 14.2C5.54795 15.2 6.40577 16 7.39557 16H10.233C11.2888 16 12.0806 15.2 12.2126 14.2L12.4105 11.9333C13.4663 10.9333 14.1262 9.53333 14.1262 8ZM6.73572 1.93333C6.73572 1.6 7.06565 1.33333 7.39559 1.33333H10.299C10.6289 1.33333 10.8929 1.6 10.9589 1.93333L11.0908 3.13333C10.365 2.86667 9.63912 2.66667 8.84729 2.66667C8.05545 2.66667 7.3296 2.86667 6.66974 3.13333L6.73572 1.93333ZM8.84727 4C6.66972 4 4.88809 5.8 4.88809 8C4.88809 10.2 6.66972 12 8.84727 12C9.83707 12 10.7609 11.6667 11.4207 11.0667C12.2786 10.3333 12.8065 9.2 12.8065 8C12.8065 5.8 11.0248 4 8.84727 4ZM10.9588 14.0667C10.9588 14.4 10.6289 14.6667 10.299 14.6667H7.39558C7.06565 14.6667 6.8017 14.4 6.73571 14.0667L6.60374 12.8667C7.26361 13.2 7.98946 13.3333 8.78129 13.3333C9.57313 13.3333 10.299 13.1333 10.9588 12.8667V14.0667ZM8.18741 8C8.18741 8.2 8.25339 8.33333 8.38537 8.46667L9.37516 9.46667C9.50713 9.6 9.70509 9.66667 9.83707 9.66667C9.96904 9.66667 10.167 9.6 10.299 9.46667C10.5629 9.2 10.5629 8.8 10.299 8.53333L9.50713 7.73333V6C9.50713 5.6 9.24319 5.33333 8.84727 5.33333C8.45135 5.33333 8.18741 5.6 8.18741 6V8Z" fill="black"/>
<mask id="mask0_0_14419" style="mask-type:luminance" maskUnits="userSpaceOnUse" x="3" y="0" width="12" height="16">
<path fill-rule="evenodd" clip-rule="evenodd" d="M14.1262 8C14.1262 6.46667 13.4663 5.13333 12.4765 4.13333L12.2786 1.8C12.1466 0.8 11.3548 0 10.299 0H7.39557C6.40577 0 5.54795 0.8 5.41598 1.8L5.21802 4.13333C4.22822 5.06667 3.56836 6.46667 3.56836 8C3.56836 9.53333 4.22822 10.9333 5.21802 11.8667L5.41598 14.2C5.54795 15.2 6.40577 16 7.39557 16H10.233C11.2888 16 12.0806 15.2 12.2126 14.2L12.4105 11.9333C13.4663 10.9333 14.1262 9.53333 14.1262 8ZM6.73572 1.93333C6.73572 1.6 7.06565 1.33333 7.39559 1.33333H10.299C10.6289 1.33333 10.8929 1.6 10.9589 1.93333L11.0908 3.13333C10.365 2.86667 9.63912 2.66667 8.84729 2.66667C8.05545 2.66667 7.3296 2.86667 6.66974 3.13333L6.73572 1.93333ZM8.84727 4C6.66972 4 4.88809 5.8 4.88809 8C4.88809 10.2 6.66972 12 8.84727 12C9.83707 12 10.7609 11.6667 11.4207 11.0667C12.2786 10.3333 12.8065 9.2 12.8065 8C12.8065 5.8 11.0248 4 8.84727 4ZM10.9588 14.0667C10.9588 14.4 10.6289 14.6667 10.299 14.6667H7.39558C7.06565 14.6667 6.8017 14.4 6.73571 14.0667L6.60374 12.8667C7.26361 13.2 7.98946 13.3333 8.78129 13.3333C9.57313 13.3333 10.299 13.1333 10.9588 12.8667V14.0667ZM8.18741 8C8.18741 8.2 8.25339 8.33333 8.38537 8.46667L9.37516 9.46667C9.50713 9.6 9.70509 9.66667 9.83707 9.66667C9.96904 9.66667 10.167 9.6 10.299 9.46667C10.5629 9.2 10.5629 8.8 10.299 8.53333L9.50713 7.73333V6C9.50713 5.6 9.24319 5.33333 8.84727 5.33333C8.45135 5.33333 8.18741 5.6 8.18741 6V8Z" fill="white"/>
</mask>
<g mask="url(#mask0_0_14419)">
<rect x="0.928711" width="15.8367" height="16" fill="#7367F0"/>
</g>
</svg>
