<svg width="14" height="10" viewBox="0 0 14 10" fill="none" xmlns="http://www.w3.org/2000/svg">
<path fill-rule="evenodd" clip-rule="evenodd" d="M13.0002 0.333252C13.4002 0.333252 13.6668 0.599919 13.6668 0.999919C13.6668 1.39992 13.4002 1.66659 13.0002 1.66659H1.00016C0.600163 1.66659 0.333496 1.39992 0.333496 0.999919C0.333496 0.599919 0.600163 0.333252 1.00016 0.333252H13.0002ZM1.00016 4.33325H10.3335C10.7335 4.33325 11.0002 4.06659 11.0002 3.66659C11.0002 3.26659 10.7335 2.99992 10.3335 2.99992H1.00016C0.600163 2.99992 0.333496 3.26659 0.333496 3.66659C0.333496 4.06659 0.600163 4.33325 1.00016 4.33325ZM13.6668 6.33325C13.6668 5.93325 13.4002 5.66659 13.0002 5.66659H1.00016C0.600163 5.66659 0.333496 5.93325 0.333496 6.33325C0.333496 6.73325 0.600163 6.99992 1.00016 6.99992H13.0002C13.4002 6.99992 13.6668 6.73325 13.6668 6.33325ZM10.3335 8.33325C10.7335 8.33325 11.0002 8.59992 11.0002 8.99992C11.0002 9.39992 10.7335 9.66659 10.3335 9.66659H1.00016C0.600163 9.66659 0.333496 9.39992 0.333496 8.99992C0.333496 8.59992 0.600163 8.33325 1.00016 8.33325H10.3335Z" fill="black"/>
</svg>
