<svg width="23" height="22" viewBox="0 0 23 22" fill="none" xmlns="http://www.w3.org/2000/svg">
<path fill-rule="evenodd" clip-rule="evenodd" d="M7.28773 1.83337H16.4434C17.9999 1.83337 19.1902 3.02504 19.0986 4.58337V19.25C19.0986 19.6167 18.9155 19.8917 18.6408 20.075C18.4577 20.1667 18.3661 20.1667 18.183 20.1667C17.9999 20.1667 17.8168 20.075 17.6337 19.9834L11.774 15.7667L5.91437 19.9834C5.6397 20.1667 5.27347 20.2584 4.9988 20.075C4.72413 19.8917 4.54102 19.6167 4.54102 19.25V4.58337C4.54102 3.02504 5.73126 1.83337 7.28773 1.83337ZM12.4149 13.9334L17.359 17.5084V4.58337C17.359 4.03337 16.9928 3.66671 16.4434 3.66671H7.28773C6.73839 3.66671 6.37216 4.03337 6.37216 4.58337V17.5084L11.3162 13.9334C11.4994 13.8417 11.6825 13.75 11.8656 13.75C12.0487 13.75 12.2318 13.8417 12.4149 13.9334Z" fill="black"/>
<mask id="mask0_0_14381" style="mask-type:luminance" maskUnits="userSpaceOnUse" x="4" y="1" width="16" height="20">
<path fill-rule="evenodd" clip-rule="evenodd" d="M7.28773 1.83337H16.4434C17.9999 1.83337 19.1902 3.02504 19.0986 4.58337V19.25C19.0986 19.6167 18.9155 19.8917 18.6408 20.075C18.4577 20.1667 18.3661 20.1667 18.183 20.1667C17.9999 20.1667 17.8168 20.075 17.6337 19.9834L11.774 15.7667L5.91437 19.9834C5.6397 20.1667 5.27347 20.2584 4.9988 20.075C4.72413 19.8917 4.54102 19.6167 4.54102 19.25V4.58337C4.54102 3.02504 5.73126 1.83337 7.28773 1.83337ZM12.4149 13.9334L17.359 17.5084V4.58337C17.359 4.03337 16.9928 3.66671 16.4434 3.66671H7.28773C6.73839 3.66671 6.37216 4.03337 6.37216 4.58337V17.5084L11.3162 13.9334C11.4994 13.8417 11.6825 13.75 11.8656 13.75C12.0487 13.75 12.2318 13.8417 12.4149 13.9334Z" fill="white"/>
</mask>
<g mask="url(#mask0_0_14381)">
</g>
</svg>
