<svg width="597" height="506" viewBox="0 0 597 506" fill="none" xmlns="http://www.w3.org/2000/svg">
<g id="Illustration">
<g id="Shape">
<path id="Rectangle" opacity="0.128511" fill-rule="evenodd" clip-rule="evenodd" d="M224.049 198.131C225.758 192.885 231.392 190.014 236.64 191.715L450.75 261.103C456.01 262.808 458.888 268.457 457.175 273.713L406.403 429.568C404.695 434.813 399.06 437.684 393.812 435.983L179.702 366.595C174.443 364.891 171.564 359.242 173.277 353.985L224.049 198.131Z" fill="url(#paint0_linear_0_12251)"/>
<path id="Rectangle_2" opacity="0.216285" fill-rule="evenodd" clip-rule="evenodd" d="M300.198 52.3661C301.907 47.1206 307.541 44.2498 312.79 45.9506L552.488 123.631C557.747 125.336 560.626 130.984 558.913 136.241L501.983 311C500.274 316.246 494.64 319.117 489.392 317.416L249.693 239.735C244.434 238.031 241.555 232.382 243.268 227.125L300.198 52.3661Z" fill="url(#paint1_linear_0_12251)"/>
<g id="Rectangle_3" opacity="0.226656" filter="url(#filter0_f_0_12251)">
<path fill-rule="evenodd" clip-rule="evenodd" d="M63.1162 17.7962C64.825 12.5507 70.4591 9.67996 75.7073 11.3808L200.733 51.8985C205.992 53.603 208.871 59.252 207.158 64.5089L178.249 153.25C176.54 158.496 170.906 161.367 165.658 159.666L40.6325 119.148C35.3729 117.444 32.4946 111.795 34.2072 106.538L63.1162 17.7962Z" fill="url(#paint2_linear_0_12251)"/>
</g>
<path id="Rectangle_4" opacity="0.216285" fill-rule="evenodd" clip-rule="evenodd" d="M459.01 373.356C460.719 368.11 466.353 365.239 471.601 366.94L525.549 384.423C530.808 386.128 533.686 391.777 531.974 397.034L503.065 485.775C501.356 491.021 495.722 493.891 490.474 492.191L436.526 474.708C431.267 473.003 428.388 467.354 430.101 462.097L459.01 373.356Z" fill="url(#paint3_linear_0_12251)"/>
<path id="Rectangle_5" opacity="0.128511" fill-rule="evenodd" clip-rule="evenodd" d="M544.274 276.284C545.983 271.038 551.617 268.168 556.865 269.869L587.12 279.673C592.38 281.378 595.258 287.027 593.545 292.284L576.03 346.051C574.321 351.297 568.687 354.168 563.439 352.467L533.184 342.662C527.924 340.957 525.046 335.308 526.758 330.052L544.274 276.284Z" fill="url(#paint4_linear_0_12251)"/>
</g>
<g id="Cloud Storage">
<g id="Phone1">
<path id="Rectangle_6" fill-rule="evenodd" clip-rule="evenodd" d="M131.011 108.871C131.011 94.9886 142.265 83.7344 156.148 83.7344H306.632C320.515 83.7344 331.769 94.9886 331.769 108.871V475.328C331.769 489.211 320.515 500.465 306.632 500.465H156.148C142.265 500.465 131.011 489.211 131.011 475.328V108.871Z" fill="#00CFE8" fill-opacity="0.225361"/>
<g id="Group 52">
<path id="Rectangle_7" fill-rule="evenodd" clip-rule="evenodd" d="M138.251 120.606C138.251 110.377 146.544 102.084 156.773 102.084H305.349C315.578 102.084 323.87 110.377 323.87 120.606V469.067C323.87 479.296 315.578 487.589 305.348 487.589H156.773C146.544 487.589 138.251 479.296 138.251 469.067V120.606Z" fill="white"/>
<mask id="mask0_0_12251" style="mask-type:luminance" maskUnits="userSpaceOnUse" x="138" y="102" width="186" height="386">
<path id="Rectangle_8" fill-rule="evenodd" clip-rule="evenodd" d="M138.251 120.606C138.251 110.377 146.544 102.084 156.773 102.084H305.349C315.578 102.084 323.87 110.377 323.87 120.606V469.067C323.87 479.296 315.578 487.589 305.348 487.589H156.773C146.544 487.589 138.251 479.296 138.251 469.067V120.606Z" fill="white"/>
</mask>
<g mask="url(#mask0_0_12251)">
<ellipse id="Oval" cx="222.555" cy="324.082" rx="15.9208" ry="15.9236" fill="#68DE9E" fill-opacity="0.642073"/>
<path id="Oval_2" fill-rule="evenodd" clip-rule="evenodd" d="M158.623 325.077C201.076 325.077 235.491 359.498 235.491 401.958C235.491 444.419 201.076 478.839 158.623 478.839C116.171 478.839 81.7559 444.419 81.7559 401.958C81.7559 359.498 116.171 325.077 158.623 325.077ZM158.623 358.666C134.718 358.666 115.339 378.048 115.339 401.958C115.339 425.868 134.718 445.251 158.623 445.251C182.529 445.251 201.908 425.868 201.908 401.958C201.908 378.048 182.529 358.666 158.623 358.666Z" fill="url(#paint5_linear_0_12251)"/>
</g>
</g>
<path id="Path" d="M250.232 90.5325C251.95 90.5325 253.342 91.8692 253.342 93.5182C253.342 95.1305 252.011 96.4443 250.346 96.5019L250.232 96.5038H195.17C193.453 96.5038 192.061 95.1671 192.061 93.5182C192.061 91.9058 193.392 90.592 195.056 90.5344L195.17 90.5325H250.232Z" fill="#56CDD9"/>
<path id="Path_2" d="M260.346 90.0347C262.063 90.0347 263.455 91.4271 263.455 93.1448C263.455 94.8242 262.124 96.1928 260.46 96.2528L260.346 96.2548H260.183C258.465 96.2548 257.073 94.8624 257.073 93.1448C257.073 91.4653 258.404 90.0967 260.069 90.0367L260.183 90.0347H260.346Z" fill="#56CDD9"/>
</g>
<g id="Group 28">
<path id="Rectangle_9" fill-rule="evenodd" clip-rule="evenodd" d="M307.011 308.734C307.011 305.421 309.697 302.734 313.011 302.734H343.375L355.011 314.734V353.734C355.011 357.048 352.324 359.734 349.011 359.734H313.011C309.697 359.734 307.011 357.048 307.011 353.734V308.734Z" fill="#FB9C9D"/>
<path id="PDF" fill-rule="evenodd" clip-rule="evenodd" d="M317.052 344.734V339.964H320.076C321.456 339.964 322.53 339.616 323.298 338.92C324.066 338.224 324.45 337.252 324.45 336.004C324.45 334.756 324.066 333.784 323.298 333.088C322.53 332.392 321.456 332.044 320.076 332.044H314.244V344.734H317.052ZM319.716 337.84H317.052V334.186H319.716C320.424 334.186 320.952 334.336 321.3 334.636C321.648 334.936 321.822 335.398 321.822 336.022C321.822 337.234 321.12 337.84 319.716 337.84ZM331.2 344.734C332.592 344.734 333.786 344.482 334.782 343.978C335.778 343.474 336.537 342.745 337.059 341.791C337.581 340.837 337.842 339.7 337.842 338.38C337.842 337.06 337.578 335.926 337.05 334.978C336.522 334.03 335.76 333.304 334.764 332.8C333.768 332.296 332.58 332.044 331.2 332.044H326.268V344.734H331.2ZM331.002 342.466H329.076V334.312H331.002C333.702 334.312 335.052 335.668 335.052 338.38C335.052 341.104 333.702 342.466 331.002 342.466ZM342.774 344.734V339.388H348.21V337.174H342.774V334.258H348.57V332.044H340.002V344.734H342.774Z" fill="white"/>
<path id="Path_3" opacity="0.33996" d="M355.011 314.734H346.375C344.718 314.734 343.375 313.391 343.375 311.734V302.734L355.011 314.734Z" fill="#EA5455"/>
</g>
<g id="Group 28_2">
<path id="Rectangle_10" fill-rule="evenodd" clip-rule="evenodd" d="M169.011 384.734C169.011 381.421 171.697 378.734 175.011 378.734H205.375L217.011 390.734V429.734C217.011 433.048 214.324 435.734 211.011 435.734H175.011C171.697 435.734 169.011 433.048 169.011 429.734V384.734Z" fill="#FFBC7C"/>
<path id="Rectangle_11" fill-rule="evenodd" clip-rule="evenodd" d="M177.011 411.234C177.011 410.958 177.235 410.734 177.511 410.734H184.511C184.787 410.734 185.011 410.958 185.011 411.234V425.234C185.011 425.511 184.787 425.734 184.511 425.734H177.511C177.235 425.734 177.011 425.511 177.011 425.234V411.234Z" fill="white"/>
<path id="Rectangle_12" fill-rule="evenodd" clip-rule="evenodd" d="M189.011 401.234C189.011 400.958 189.235 400.734 189.511 400.734H196.511C196.787 400.734 197.011 400.958 197.011 401.234V425.234C197.011 425.511 196.787 425.734 196.511 425.734H189.511C189.235 425.734 189.011 425.511 189.011 425.234V401.234Z" fill="white"/>
<path id="Rectangle_13" fill-rule="evenodd" clip-rule="evenodd" d="M201.011 408.234C201.011 407.958 201.235 407.734 201.511 407.734H208.511C208.787 407.734 209.011 407.958 209.011 408.234V425.234C209.011 425.511 208.787 425.734 208.511 425.734H201.511C201.235 425.734 201.011 425.511 201.011 425.234V408.234Z" fill="white"/>
<path id="Path_4" opacity="0.732678" d="M217.011 390.734H208.375C206.718 390.734 205.375 389.391 205.375 387.734V378.734L217.011 390.734Z" fill="#FC9735"/>
</g>
<g id="Group 28_3">
<path id="Rectangle_14" fill-rule="evenodd" clip-rule="evenodd" d="M237.011 347.734C237.011 344.421 239.697 341.734 243.011 341.734H273.375L285.011 353.734V392.734C285.011 396.048 282.324 398.734 279.011 398.734H243.011C239.697 398.734 237.011 396.048 237.011 392.734V347.734Z" fill="#B7B0FF"/>
<g id="Group 31">
<circle id="Oval_3" cx="253.302" cy="378.884" r="4.8" fill="white"/>
<circle id="Oval_4" cx="264.811" cy="376.813" r="4.8" fill="white"/>
<path id="Path_5" fill-rule="evenodd" clip-rule="evenodd" d="M269.611 361.338V376.451H267.811L267.81 365.012L258.088 368.164V378.74H256.288L256.289 365.655L269.611 361.338Z" fill="white"/>
</g>
<path id="Path_6" opacity="0.33996" d="M285.011 353.734H276.375C274.718 353.734 273.375 352.391 273.375 350.734V341.734L285.011 353.734Z" fill="#564EA6"/>
</g>
<g id="Group 73">
<path id="Rectangle_15" opacity="0.272833" fill-rule="evenodd" clip-rule="evenodd" d="M292.122 158.486C292.122 152.548 287.308 147.734 281.37 147.734H180.215C174.277 147.734 169.463 152.548 169.463 158.486V279.347C169.463 285.285 174.277 290.099 180.215 290.099H281.37C287.308 290.099 292.122 285.285 292.122 279.347V158.486Z" fill="#00CFE8"/>
<path id="Rectangle_16" fill-rule="evenodd" clip-rule="evenodd" d="M282.845 169.164C282.845 163.225 278.031 158.412 272.093 158.412H190.881C184.943 158.412 180.129 163.225 180.129 169.164V179.414C180.129 185.352 184.943 190.166 190.881 190.166H272.093C278.031 190.166 282.845 185.352 282.845 179.414V169.164Z" fill="#F4FEFF"/>
<path id="Rectangle_17" fill-rule="evenodd" clip-rule="evenodd" d="M275.9 174.178C275.9 168.419 271.232 163.75 265.473 163.75H264.107C258.348 163.75 253.68 168.419 253.68 174.178C253.68 179.936 258.348 184.605 264.107 184.605H265.473C271.232 184.605 275.9 179.936 275.9 174.178Z" fill="#7367F0" fill-opacity="0.210173"/>
<path id="Rectangle_18" fill-rule="evenodd" clip-rule="evenodd" d="M282.845 210.872C282.845 204.934 278.031 200.12 272.093 200.12H190.881C184.943 200.12 180.129 204.934 180.129 210.872V221.122C180.129 227.06 184.943 231.874 190.881 231.874H272.093C278.031 231.874 282.845 227.06 282.845 221.122V210.872Z" fill="#F4FEFF"/>
<path id="Rectangle_19" fill-rule="evenodd" clip-rule="evenodd" d="M275.9 215.886C275.9 210.127 271.232 205.459 265.473 205.459H264.107C258.348 205.459 253.68 210.127 253.68 215.886C253.68 221.645 258.348 226.313 264.107 226.313H265.473C271.232 226.313 275.9 221.645 275.9 215.886Z" fill="#7367F0" fill-opacity="0.210173"/>
<path id="Rectangle_20" fill-rule="evenodd" clip-rule="evenodd" d="M282.845 252.58C282.845 246.642 278.031 241.828 272.093 241.828H190.881C184.943 241.828 180.129 246.642 180.129 252.58V262.83C180.129 268.768 184.943 273.582 190.881 273.582H272.093C278.031 273.582 282.845 268.768 282.845 262.83V252.58Z" fill="#F4FEFF"/>
<path id="Rectangle_21" fill-rule="evenodd" clip-rule="evenodd" d="M275.9 257.594C275.9 251.835 271.232 247.167 265.473 247.167H264.107C258.348 247.167 253.68 251.835 253.68 257.594C253.68 263.353 258.348 268.021 264.107 268.021H265.473C271.232 268.021 275.9 263.353 275.9 257.594Z" fill="#7367F0" fill-opacity="0.210173"/>
</g>
<g id="Group 37">
<path id="Rectangle_22" fill-rule="evenodd" clip-rule="evenodd" d="M394.011 138.44C394.011 136.231 395.802 134.44 398.011 134.44L404.306 134.44C406.515 134.44 408.306 136.231 408.306 138.44V141.274C408.306 141.947 408.852 142.493 409.526 142.493H454.937C457.146 142.493 458.937 144.284 458.937 146.493V185.307C458.937 187.517 457.146 189.307 454.937 189.307H398.011C395.802 189.307 394.011 187.517 394.011 185.307V138.44Z" fill="#FF9F43"/>
<path id="Rectangle_23" fill-rule="evenodd" clip-rule="evenodd" d="M409.413 139.277C409.508 138.686 410.018 138.25 410.618 138.25H460.212C460.962 138.25 461.534 138.921 461.416 139.662L453.965 186.375C453.871 186.967 453.36 187.402 452.761 187.402H403.166C402.416 187.402 401.844 186.732 401.962 185.991L409.413 139.277Z" fill="url(#paint6_linear_0_12251)"/>
<path id="Rectangle_24" fill-rule="evenodd" clip-rule="evenodd" d="M462.705 150.733C465.221 150.733 467.112 153.027 466.632 155.496L461.196 183.453C460.465 187.212 457.172 189.926 453.343 189.926H398.863C396.348 189.926 394.457 187.632 394.937 185.163L400.373 157.206C401.104 153.447 404.396 150.733 408.226 150.733L462.705 150.733Z" fill="#FABB7E"/>
</g>
<g id="Group 28_4">
<path id="Rectangle_25" fill-rule="evenodd" clip-rule="evenodd" d="M360.011 230.734C360.011 227.421 362.697 224.734 366.011 224.734H422.011C425.324 224.734 428.011 227.421 428.011 230.734V275.734C428.011 279.048 425.324 281.734 422.011 281.734H366.011C362.697 281.734 360.011 279.048 360.011 275.734V230.734Z" fill="#77ECAB"/>
<path id="Path 6" fill-rule="evenodd" clip-rule="evenodd" d="M387.185 244.306C386.642 244.042 386.011 244.437 386.011 245.04V261.398C386.011 262.008 386.657 262.403 387.2 262.124L403.558 253.729C404.156 253.422 404.147 252.563 403.542 252.269L387.185 244.306Z" fill="white"/>
<rect id="Rectangle_26" x="367.011" y="229.734" width="6" height="6" fill="white"/>
<rect id="Rectangle_27" x="379.011" y="229.734" width="6" height="6" fill="white"/>
<rect id="Rectangle_28" x="391.011" y="229.734" width="6" height="6" fill="white"/>
<rect id="Rectangle_29" x="403.011" y="229.734" width="6" height="6" fill="white"/>
<rect id="Rectangle_30" x="415.011" y="229.734" width="6" height="6" fill="white"/>
<rect id="Rectangle_31" x="367.011" y="269.734" width="6" height="6" fill="white"/>
<rect id="Rectangle_32" x="379.011" y="269.734" width="6" height="6" fill="white"/>
<rect id="Rectangle_33" x="391.011" y="269.734" width="6" height="6" fill="white"/>
<rect id="Rectangle_34" x="403.011" y="269.734" width="6" height="6" fill="white"/>
<rect id="Rectangle_35" x="415.011" y="269.734" width="6" height="6" fill="white"/>
</g>
<g id="Men3.6">
<g id="RLeg">
<path id="Path_7" fill-rule="evenodd" clip-rule="evenodd" d="M38.4256 478.193L34.8222 499.949L47.2507 499.883L47.6709 477.852L38.4256 478.193Z" fill="#B8B6C9"/>
<path id="Path_8" fill-rule="evenodd" clip-rule="evenodd" d="M33.8357 491.736L33.7477 493.569C32.4206 495.036 31.8532 498.069 32.0456 502.667C32.0456 505.743 49.8274 505.652 50.814 502.667C51.1507 497.677 50.546 494.579 49 493.373L48.9903 491.603C48.9841 490.454 48.2068 489.452 47.0915 489.154L44.8411 488.552C42.8993 485.729 40.253 485.829 37.9853 488.905L35.8532 489.365C34.7186 489.611 33.8911 490.583 33.8357 491.736Z" fill="#2F2B57"/>
<path id="Path_9" fill-rule="evenodd" clip-rule="evenodd" d="M80.5771 306.683C80.5771 306.683 64.5073 394.964 61.6895 404.157C58.8717 413.35 51.0571 482.495 51.0571 482.495L34.1775 482.543C34.1775 482.543 33.8179 429.316 35.523 420.761C37.2281 412.207 41.077 398.119 41.077 398.119C41.077 398.119 43.9367 346.974 45.6475 335.043C47.3578 323.112 52.8487 305.428 52.8487 305.428L80.5771 306.683Z" fill="#2F2B57"/>
<path id="Path_10" fill-rule="evenodd" clip-rule="evenodd" d="M68.3465 372.171L69.8887 360.155L68.7604 363.464C63.1428 380.038 59.3231 392.903 57.3015 402.06C55.6002 409.766 55.2425 423.07 56.2285 441.971L57.3492 432.709C58.965 419.593 60.536 408.082 61.6467 404.298L61.7565 403.931C62.8003 400.336 65.4007 387.446 68.3465 372.171Z" fill="white" fill-opacity="0.192499"/>
</g>
<g id="LLeg">
<path id="Path_11" fill-rule="evenodd" clip-rule="evenodd" d="M79.252 481.285L90.5959 481.361L90.5991 481.679C90.6365 483.241 91.0621 490.131 95.6171 492.776L96.526 493.312C101.655 496.385 108.751 501.328 108.751 501.328L78.3862 502.361L79.252 481.285Z" fill="#B8B6C9"/>
<path id="Path_12" fill-rule="evenodd" clip-rule="evenodd" d="M80.8215 489.002C78.1617 488.757 76.8319 493.859 76.8319 504.308L90.4498 504.358L91.3726 502.361L92.2397 502.709C94.0863 503.435 95.3978 503.835 96.174 503.911L96.8946 503.977C100.713 504.306 106.004 504.461 112.769 504.44L112.791 504.323C112.906 503.615 113.209 499.834 107.329 496.961L107.053 496.829C100.349 493.688 95.4375 489.252 94.3768 488.662L94.3253 488.634C93.3754 488.167 93.9951 487.903 92.6452 489.002C91.2954 490.1 91.0732 492.987 88.0145 493.078C84.0777 493.195 84.8112 489.369 80.8215 489.002Z" fill="#2F2B57"/>
<path id="Path_13" fill-rule="evenodd" clip-rule="evenodd" d="M65.1021 348.291C69.4528 363.979 72.9992 402.29 72.9992 402.29C72.9992 402.29 73.3996 406.326 71.6664 417.506C69.9331 428.686 76.7626 483.088 76.7626 483.088L94.7387 483.124C94.7387 483.124 96.956 410.041 97.0611 402.354C97.2253 390.369 101.112 307.273 101.112 307.273L63.726 306.422C63.726 306.422 60.7513 332.602 65.1021 348.291Z" fill="#353160"/>
<path id="Path_14" fill-rule="evenodd" clip-rule="evenodd" d="M91.3146 338.72L91.3852 339.027C93.9677 349.887 89.5389 398.015 90.7997 409.459L91.3019 413.553C92.1783 420.91 93.6615 434.323 95.7512 453.791L96.2045 437.495C96.6206 422.009 96.9743 407.437 97.0509 403.005L97.0611 402.354C97.2253 390.369 101.112 307.274 101.112 307.274L94.1182 307.115L93.8124 308.459C90.725 322.228 89.8924 332.315 91.3146 338.72Z" fill="white" fill-opacity="0.192499"/>
<path id="Path 47" d="M97.2244 491.737L98.085 490.244" stroke="white" stroke-width="2" stroke-linecap="round"/>
<path id="Path 47_2" d="M99.7615 493.443L100.622 491.95" stroke="white" stroke-width="2" stroke-linecap="round"/>
<path id="Path 47_3" d="M102.298 495.149L103.158 493.656" stroke="white" stroke-width="2" stroke-linecap="round"/>
</g>
<g id="Head">
<path id="Path_15" fill-rule="evenodd" clip-rule="evenodd" d="M91.9762 198.904C95.881 199.331 95.6042 206.191 90.8508 206.549C89.8793 213.162 86.4145 216.312 82.1904 216.677L82.4246 226.679L63.7399 226.668C63.7399 226.668 69.0015 219.602 68.7392 209.929C68.477 200.255 68.9152 191.168 68.9152 191.168L93.1162 191.602L91.9762 198.904Z" fill="url(#paint7_linear_0_12251)"/>
<path id="Path_16" fill-rule="evenodd" clip-rule="evenodd" d="M93.8504 194.829C95.5341 195.642 94.1936 199.315 93.3411 199.315C89.4299 197.769 86.1872 203.334 84.5388 208.924C79.8575 213.513 69.514 213.615 68.4454 209.776C64.3997 201.367 64.2013 189.208 68.9224 188.27C65.2164 178.498 115.266 173.387 93.8504 194.829Z" fill="url(#paint8_linear_0_12251)"/>
<path id="Path 45" fill-rule="evenodd" clip-rule="evenodd" d="M89.6712 210.296C89.479 209.874 88.3327 212.759 86.4798 214.305C84.5622 215.905 81.6838 216.373 82.1907 216.677C86.081 219.006 91.2373 213.729 89.6712 210.296Z" fill="url(#paint9_linear_0_12251)"/>
</g>
<g id="Group 9">
<path id="Path_17" fill-rule="evenodd" clip-rule="evenodd" d="M17.5116 245.307C17.5116 245.307 18.3325 239.78 18.072 236.143C17.5901 229.416 18.5117 223.742 17.0222 222.859C15.1117 221.727 14.6339 231.771 14.6339 231.771C14.6339 231.771 3.72306 214.009 1.44838 216.155C-0.826298 218.301 3.91861 227.635 3.16624 230.333C2.41387 233.032 9.93231 246.086 9.93231 246.086L17.5116 245.307Z" fill="url(#paint10_linear_0_12251)"/>
<path id="Path_18" fill-rule="evenodd" clip-rule="evenodd" d="M57.845 248.5C57.845 248.5 41.3181 274.207 37.6669 279.192C33.8371 284.42 27.0734 286.736 22.2734 278.395C18.028 271.016 8.93744 252.539 7.78693 246.795C6.92859 242.51 15.7205 236.122 19.9461 242.526C24.1716 248.929 30.8452 258.558 30.8452 258.558C30.8452 258.558 41.8193 238.677 45.2403 233.986C54.4661 221.336 68.5228 232.695 57.845 248.5Z" fill="#02C4DC"/>
<path id="Path_19" fill-rule="evenodd" clip-rule="evenodd" d="M30.8447 258.558L27.2134 264.81L28.5367 255.16L30.8447 258.558Z" fill="black" fill-opacity="0.159856"/>
<path id="Path 54" d="M19.6387 242.733C15.7992 241.519 12.2835 242.165 9.47805 246.89" stroke="#5386BF" stroke-linecap="round"/>
</g>
<g id="Group 17">
<path id="Path_20" fill-rule="evenodd" clip-rule="evenodd" d="M65.7654 221.805L85.0723 221.93L85.8626 222.249C89.0475 223.555 100.876 228.64 103.079 232.996C106.761 240.273 101.91 298.581 104.025 302.099C108.486 309.522 102.659 314.64 83.2949 316.577L82.704 316.634C62.868 318.525 45.2702 316.977 48.4636 306.971C51.6577 296.965 41.8849 232.518 51.0492 228.067L65.7654 221.805Z" fill="#00CFE8"/>
<path id="Path_21" fill-rule="evenodd" clip-rule="evenodd" d="M86.5869 236.572C83.7265 242.799 89.4079 259.004 103.631 285.188L103.807 279.339C104.272 264.738 104.956 246.941 104.097 237.985C95.114 231.187 89.2775 230.715 86.5869 236.572Z" fill="black" fill-opacity="0.159856"/>
<path id="Rectangle_36" fill-rule="evenodd" clip-rule="evenodd" d="M86.3714 220.096C85.1703 219.769 65.0575 220.096 64.2584 220.096C63.4593 220.096 63.4593 223.514 64.2584 223.514C64.747 223.514 70.9845 223.421 86.3729 223.235C87.7615 223.218 91.4658 224.788 91.4658 224.788C91.4658 224.788 87.5725 220.424 86.3714 220.096Z" fill="url(#paint11_linear_0_12251)"/>
</g>
<g id="Group 8">
<path id="Path_22" fill-rule="evenodd" clip-rule="evenodd" d="M164.395 279.495C164.395 279.495 174.925 281.167 176.911 279.525C178.897 277.884 186.809 266.723 185.945 264.803C185.081 262.883 177.862 266.944 177.247 265.723C176.456 264.154 180.538 258.557 176.961 258.231C176.04 258.147 175.389 261.592 172.795 263.861C170.202 266.13 163.942 271.164 163.942 271.164L164.395 279.495Z" fill="url(#paint12_linear_0_12251)"/>
<path id="Path_23" fill-rule="evenodd" clip-rule="evenodd" d="M100.761 230.366C109.861 239.024 122.745 259.471 125.491 261.272C128.236 263.073 162.58 266.707 165.814 269.639C168.515 272.089 168.758 279.543 165.814 281.61C162.869 283.678 124.202 280.906 117.11 278.84C110.018 276.774 97.8713 257.84 92.4454 251.93C77.2714 235.403 91.6609 221.708 100.761 230.366Z" fill="#02C4DC"/>
<path id="Path 53" d="M162.241 268.439C163.941 270.428 164.799 273.327 163.941 278.991" stroke="#5386BF" stroke-linecap="round"/>
</g>
</g>
</g>
</g>
<defs>
<filter id="filter0_f_0_12251" x="22.8398" y="0.0179863" width="195.686" height="171.011" filterUnits="userSpaceOnUse" color-interpolation-filters="sRGB">
<feFlood flood-opacity="0" result="BackgroundImageFix"/>
<feBlend mode="normal" in="SourceGraphic" in2="BackgroundImageFix" result="shape"/>
<feGaussianBlur stdDeviation="5.43656" result="effect1_foregroundBlur_0_12251"/>
</filter>
<linearGradient id="paint0_linear_0_12251" x1="68.2289" y1="392.784" x2="344.215" y2="540.197" gradientUnits="userSpaceOnUse">
<stop stop-color="#FAFEFF"/>
<stop offset="1" stop-color="#28C76F"/>
</linearGradient>
<linearGradient id="paint1_linear_0_12251" x1="167.137" y1="191.207" x2="326.377" y2="344.628" gradientUnits="userSpaceOnUse">
<stop stop-color="#FAFEFF"/>
<stop offset="1" stop-color="#00CFE8"/>
</linearGradient>
<linearGradient id="paint2_linear_0_12251" x1="-31.8552" y1="134.056" x2="138.616" y2="225.213" gradientUnits="userSpaceOnUse">
<stop stop-color="#FAFEFF"/>
<stop offset="1" stop-color="#77ECAB"/>
</linearGradient>
<linearGradient id="paint3_linear_0_12251" x1="408.135" y1="453.423" x2="465.347" y2="488.992" gradientUnits="userSpaceOnUse">
<stop stop-color="#FAFEFF"/>
<stop offset="1" stop-color="#00CFE8"/>
</linearGradient>
<linearGradient id="paint4_linear_0_12251" x1="498.344" y1="357.309" x2="559.885" y2="383.659" gradientUnits="userSpaceOnUse">
<stop stop-color="#FAFEFF"/>
<stop offset="1" stop-color="#28C76F"/>
</linearGradient>
<linearGradient id="paint5_linear_0_12251" x1="114.08" y1="505.651" x2="239.749" y2="441.009" gradientUnits="userSpaceOnUse">
<stop stop-color="#F8FDFF"/>
<stop offset="1" stop-color="#88EFB6"/>
</linearGradient>
<linearGradient id="paint6_linear_0_12251" x1="456.573" y1="153.675" x2="456.573" y2="124.744" gradientUnits="userSpaceOnUse">
<stop stop-color="#F8FDFF"/>
<stop offset="1" stop-color="#AAD4FF"/>
</linearGradient>
<linearGradient id="paint7_linear_0_12251" x1="100.036" y1="182.523" x2="96.9075" y2="224.81" gradientUnits="userSpaceOnUse">
<stop stop-color="#FDC6C6"/>
<stop offset="1" stop-color="#FAB2B2"/>
</linearGradient>
<linearGradient id="paint8_linear_0_12251" x1="96.4306" y1="190.363" x2="58.6147" y2="190.363" gradientUnits="userSpaceOnUse">
<stop stop-color="#3F4044"/>
<stop offset="1" stop-color="#222735"/>
</linearGradient>
<linearGradient id="paint9_linear_0_12251" x1="92.4179" y1="221.028" x2="77.6825" y2="223.341" gradientUnits="userSpaceOnUse">
<stop stop-color="#4D63A0"/>
<stop offset="1" stop-color="#222735"/>
</linearGradient>
<linearGradient id="paint10_linear_0_12251" x1="21.1162" y1="208.645" x2="17.1213" y2="244.249" gradientUnits="userSpaceOnUse">
<stop stop-color="#FDC6C6"/>
<stop offset="1" stop-color="#FAB2B2"/>
</linearGradient>
<linearGradient id="paint11_linear_0_12251" x1="142.374" y1="213.056" x2="142.318" y2="236.819" gradientUnits="userSpaceOnUse">
<stop stop-color="#D7FFFF"/>
<stop offset="1" stop-color="#648BF0"/>
</linearGradient>
<linearGradient id="paint12_linear_0_12251" x1="189.83" y1="252.87" x2="188.141" y2="279.123" gradientUnits="userSpaceOnUse">
<stop stop-color="#FDC6C6"/>
<stop offset="1" stop-color="#FAB2B2"/>
</linearGradient>
</defs>
</svg>
