<svg width="311" height="268" viewBox="0 0 311 268" fill="none" xmlns="http://www.w3.org/2000/svg">
<path fill-rule="evenodd" clip-rule="evenodd" d="M0 0H311V128.017H158.048L159.048 268H0V0Z" fill="white"/>
<mask id="mask0_26676_19409" style="mask-type:luminance" maskUnits="userSpaceOnUse" x="0" y="0" width="311" height="268">
<path fill-rule="evenodd" clip-rule="evenodd" d="M0 0H311V128.017H158.048L159.048 268H0V0Z" fill="white"/>
</mask>
<g mask="url(#mask0_26676_19409)">
<path d="M167.881 7.20114C171.173 7.38448 174.441 7.6921 177.68 8.12012L176.108 20.0167C179.071 20.4083 182.007 20.911 184.911 21.5212L187.379 9.77766C190.599 10.4542 193.783 11.2508 196.925 12.1632L193.578 23.687C196.445 24.5197 199.273 25.4588 202.058 26.5007L206.263 15.2616C209.341 16.4131 212.37 17.6786 215.344 19.0538L210.307 29.9456C213.016 31.198 215.674 32.5507 218.276 33.9998L224.114 23.516C226.982 25.1132 229.788 26.8167 232.526 28.6224L225.919 38.6397C228.407 40.2811 230.834 42.0153 233.192 43.8385L240.531 34.3443C243.126 36.3499 245.646 38.4534 248.085 40.6506L240.054 49.5671C242.266 51.5591 244.404 53.6357 246.464 55.7929L255.143 47.5066C257.405 49.8755 259.58 52.3331 261.664 54.8753L252.382 62.4816C254.265 64.7789 256.064 67.1518 257.775 69.5966L267.607 62.7171C269.482 65.3969 271.261 68.1556 272.937 70.9892L262.61 77.0994C264.119 79.6502 265.536 82.2677 266.857 84.9486L277.621 79.6448C279.064 82.5721 280.402 85.5679 281.629 88.6284L270.492 93.0959C271.593 95.8404 272.596 98.6432 273.497 101.501L284.942 97.8924C285.922 101 286.791 104.165 287.545 107.384L275.861 110.121C276.2 111.567 276.513 113.026 276.801 114.498C277.099 116.027 277.366 117.555 277.603 119.081L289.461 117.242C289.988 120.636 290.376 124.023 290.632 127.396L278.666 128.301C278.9 131.405 279.01 134.495 278.999 137.565L290.999 137.608C290.987 141.036 290.838 144.443 290.556 147.822L278.597 146.826C278.34 149.918 277.96 152.984 277.462 156.02L289.303 157.963C288.749 161.339 288.063 164.679 287.248 167.978L275.598 165.101C274.855 168.11 273.994 171.08 273.02 174.007L284.406 177.796C283.328 181.036 282.124 184.226 280.799 187.359L269.747 182.685C268.54 185.538 267.223 188.339 265.799 191.084L276.45 196.611C274.88 199.637 273.192 202.6 271.391 205.492L261.204 199.148C259.568 201.776 257.83 204.339 255.993 206.831L265.652 213.951C263.632 216.692 261.503 219.356 259.271 221.935L250.197 214.083C248.174 216.421 246.058 218.682 243.852 220.859L252.284 229.398C249.864 231.788 247.347 234.087 244.736 236.289L236.999 227.116C234.641 229.106 232.199 231.007 229.678 232.814L236.67 242.567C233.909 244.546 231.062 246.424 228.133 248.192L221.931 237.919C219.296 239.51 216.588 241.004 213.811 242.395L219.184 253.124C216.153 254.643 213.046 256.05 209.87 257.339L205.357 246.22C202.509 247.376 199.599 248.427 196.628 249.37L200.258 260.808C197.034 261.831 193.747 262.736 190.402 263.519L187.67 251.834C186.165 252.186 184.646 252.51 183.115 252.807C181.367 253.145 179.622 253.443 177.881 253.702L179.643 265.572C175.76 266.148 171.889 266.547 168.037 266.774L167.331 254.795C165.56 254.899 163.794 254.963 162.035 254.988L162.205 266.987L161.162 266.994L161.088 254.994L160.094 255C158.598 254.997 157.107 254.965 155.62 254.905L155.139 266.896C151.805 266.762 148.495 266.501 145.213 266.116L146.61 254.197C143.606 253.845 140.628 253.379 137.682 252.802L135.377 264.579C132.109 263.939 128.878 263.176 125.688 262.294L128.887 250.728C125.975 249.923 123.101 249.008 120.272 247.988L116.202 259.277C113.073 258.148 109.994 256.903 106.971 255.545L111.887 244.599C109.133 243.362 106.43 242.022 103.782 240.582L98.0501 251.125C95.1323 249.538 92.2769 247.842 89.4905 246.041L96.0048 235.963C93.4717 234.326 91.0013 232.593 88.5998 230.768L81.3405 240.324C78.6985 238.316 76.132 236.209 73.6473 234.004L81.6111 225.028C79.3582 223.029 77.1798 220.943 75.0818 218.775L66.4574 227.119C64.1533 224.737 61.9368 222.264 59.8141 219.704L69.0514 212.045C67.1331 209.731 65.2997 207.34 63.5568 204.875L53.7585 211.803C51.8481 209.101 50.036 206.318 48.3284 203.458L58.6315 197.306C57.0943 194.732 55.6505 192.088 54.3055 189.38L43.558 194.718C42.0894 191.761 40.7277 188.733 39.4787 185.64L50.6061 181.147C49.4861 178.373 48.4657 175.539 47.5501 172.649L36.1104 176.273C35.115 173.131 34.2324 169.929 33.468 166.672L45.1506 163.931C44.8072 162.467 44.49 160.991 44.1995 159.502C43.901 157.973 43.6337 156.445 43.3971 154.919L31.5389 156.758C31.0123 153.364 30.6235 149.977 30.3684 146.604L42.3343 145.699C42.0995 142.595 41.9897 139.505 42.0008 136.435L30.0008 136.392C30.0132 132.964 30.1624 129.557 30.444 126.178L42.4025 127.174C42.6602 124.082 43.0401 121.016 43.5383 117.98L31.6967 116.037C32.2507 112.661 32.9374 109.321 33.7521 106.022L45.402 108.899C46.145 105.89 47.0056 102.92 47.9797 99.9929L36.5937 96.2036C37.6718 92.9642 38.8758 89.7742 40.2011 86.6406L51.2533 91.3149C52.4597 88.4623 53.7771 85.6607 55.2011 82.9165L44.5497 77.3894C46.1202 74.3628 47.8083 71.4 49.6092 68.5081L59.7956 74.8515C61.4317 72.2243 63.1704 69.6612 65.0074 67.1689L55.3477 60.0491C57.3684 57.3075 59.4971 54.6437 61.729 52.0646L70.8031 59.9171C72.8262 57.5792 74.9425 55.3183 77.1476 53.1405L68.7155 44.6024C71.1357 42.2122 73.6534 39.9128 76.2638 37.711L84.0007 46.8838C86.3593 44.8943 88.8011 42.993 91.3218 41.1857L84.3296 31.4333C87.0906 29.4537 89.938 27.5763 92.8672 25.8078L99.0694 36.0807C101.704 34.4899 104.412 32.9961 107.189 31.6053L101.816 20.8758C104.847 19.3574 107.954 17.9504 111.13 16.6611L115.643 27.7802C118.491 26.6245 121.401 25.5726 124.372 24.6301L120.742 13.1921C123.966 12.1691 127.253 11.2637 130.598 10.4815L133.33 22.1663C134.835 21.8144 136.354 21.4899 137.885 21.1933C139.7 20.8419 141.512 20.5339 143.321 20.2684L141.578 8.39561C145.612 7.80343 149.633 7.40314 153.633 7.18816L154.277 19.1709C156.117 19.072 157.95 19.0163 159.778 19.0029L159.69 7.00326L160.286 7.00163L160.318 19.0016L160.914 19L160.881 7L161.921 7.01021L161.804 19.0096L162.795 19.0194C164.273 19.0463 165.746 19.1008 167.214 19.1826L167.881 7.20114Z" stroke="url(#paint0_linear_26676_19409)" stroke-width="24" stroke-linejoin="round" stroke-dasharray="10"/>
</g>
<defs>
<linearGradient id="paint0_linear_26676_19409" x1="221.626" y1="63.7837" x2="91.6575" y2="202.498" gradientUnits="userSpaceOnUse">
<stop stop-color="#E7555B"/>
<stop offset="0.489756" stop-color="#BD5C91"/>
<stop offset="1" stop-color="#9263CA"/>
</linearGradient>
</defs>
</svg>
