<svg width="301" height="314" viewBox="0 0 301 314" fill="none" xmlns="http://www.w3.org/2000/svg">
<g clip-path="url(#clip0_26676_21032)">
<path fill-rule="evenodd" clip-rule="evenodd" d="M151.134 20L268 88.9042V224.961L151.134 292L33 224.961L33 88.9042L151.134 20Z" stroke="#EBE9F1" stroke-linecap="square"/>
<path d="M4.16448 94.072C3.68448 94.072 3.24048 93.968 2.83248 93.76C2.42448 93.552 2.09248 93.256 1.83648 92.872L2.36448 92.272C2.82848 92.96 3.43248 93.304 4.17648 93.304C5.21648 93.304 5.73648 92.688 5.73648 91.456V86.368H2.66448V85.6H6.61248V91.42C6.61248 92.3 6.40448 92.964 5.98848 93.412C5.58048 93.852 4.97248 94.072 4.16448 94.072ZM14.7842 87.688V94H13.9682V92.848C13.7442 93.232 13.4362 93.532 13.0442 93.748C12.6522 93.956 12.2042 94.06 11.7002 94.06C10.8762 94.06 10.2242 93.832 9.7442 93.376C9.2722 92.912 9.0362 92.236 9.0362 91.348V87.688H9.8882V91.264C9.8882 91.928 10.0522 92.432 10.3802 92.776C10.7082 93.12 11.1762 93.292 11.7842 93.292C12.4482 93.292 12.9722 93.092 13.3562 92.692C13.7402 92.284 13.9322 91.72 13.9322 91V87.688H14.7842ZM20.3864 87.64C21.1784 87.64 21.8064 87.872 22.2704 88.336C22.7424 88.792 22.9784 89.46 22.9784 90.34V94H22.1264V90.424C22.1264 89.768 21.9624 89.268 21.6344 88.924C21.3064 88.58 20.8384 88.408 20.2304 88.408C19.5504 88.408 19.0104 88.612 18.6104 89.02C18.2184 89.42 18.0224 89.976 18.0224 90.688V94H17.1704V87.688H17.9864V88.852C18.2184 88.468 18.5384 88.172 18.9464 87.964C19.3624 87.748 19.8424 87.64 20.3864 87.64Z" fill="#B9B9C3"/>
<path d="M11.6291 217.6V226H10.7771V219.28L7.47711 224.932H7.05711L3.75711 219.316V226H2.90511V217.6H3.63711L7.28511 223.828L10.8971 217.6H11.6291ZM16.394 219.64C17.218 219.64 17.85 219.848 18.29 220.264C18.73 220.672 18.95 221.28 18.95 222.088V226H18.134V225.016C17.942 225.344 17.658 225.6 17.282 225.784C16.914 225.968 16.474 226.06 15.962 226.06C15.258 226.06 14.698 225.892 14.282 225.556C13.866 225.22 13.658 224.776 13.658 224.224C13.658 223.688 13.85 223.256 14.234 222.928C14.626 222.6 15.246 222.436 16.094 222.436H18.098V222.052C18.098 221.508 17.946 221.096 17.642 220.816C17.338 220.528 16.894 220.384 16.31 220.384C15.91 220.384 15.526 220.452 15.158 220.588C14.79 220.716 14.474 220.896 14.21 221.128L13.826 220.492C14.146 220.22 14.53 220.012 14.978 219.868C15.426 219.716 15.898 219.64 16.394 219.64ZM16.094 225.388C16.574 225.388 16.986 225.28 17.33 225.064C17.674 224.84 17.93 224.52 18.098 224.104V223.072H16.118C15.038 223.072 14.498 223.448 14.498 224.2C14.498 224.568 14.638 224.86 14.918 225.076C15.198 225.284 15.59 225.388 16.094 225.388ZM26.451 219.688L23.295 226.756C23.039 227.348 22.743 227.768 22.407 228.016C22.071 228.264 21.667 228.388 21.195 228.388C20.891 228.388 20.607 228.34 20.343 228.244C20.079 228.148 19.851 228.004 19.659 227.812L20.055 227.176C20.375 227.496 20.759 227.656 21.207 227.656C21.495 227.656 21.739 227.576 21.939 227.416C22.147 227.256 22.339 226.984 22.515 226.6L22.791 225.988L19.971 219.688H20.859L23.235 225.052L25.611 219.688H26.451Z" fill="#B9B9C3"/>
<path d="M147.361 306.756H142.681L141.673 309H140.749L144.589 300.6H145.465L149.305 309H148.369L147.361 306.756ZM147.037 306.036L145.021 301.524L143.005 306.036H147.037ZM153.766 302.64C154.358 302.64 154.894 302.776 155.374 303.048C155.854 303.312 156.23 303.688 156.502 304.176C156.774 304.664 156.91 305.22 156.91 305.844C156.91 306.476 156.774 307.036 156.502 307.524C156.23 308.012 155.854 308.392 155.374 308.664C154.902 308.928 154.366 309.06 153.766 309.06C153.254 309.06 152.79 308.956 152.374 308.748C151.966 308.532 151.63 308.22 151.366 307.812V311.328H150.514V302.688H151.33V303.936C151.586 303.52 151.922 303.2 152.338 302.976C152.762 302.752 153.238 302.64 153.766 302.64ZM153.706 308.304C154.146 308.304 154.546 308.204 154.906 308.004C155.266 307.796 155.546 307.504 155.746 307.128C155.954 306.752 156.058 306.324 156.058 305.844C156.058 305.364 155.954 304.94 155.746 304.572C155.546 304.196 155.266 303.904 154.906 303.696C154.546 303.488 154.146 303.384 153.706 303.384C153.258 303.384 152.854 303.488 152.494 303.696C152.142 303.904 151.862 304.196 151.654 304.572C151.454 304.94 151.354 305.364 151.354 305.844C151.354 306.324 151.454 306.752 151.654 307.128C151.862 307.504 152.142 307.796 152.494 308.004C152.854 308.204 153.258 308.304 153.706 308.304ZM159.463 303.924C159.663 303.5 159.959 303.18 160.351 302.964C160.751 302.748 161.243 302.64 161.827 302.64V303.468L161.623 303.456C160.959 303.456 160.439 303.66 160.063 304.068C159.687 304.476 159.499 305.048 159.499 305.784V309H158.647V302.688H159.463V303.924Z" fill="#B9B9C3"/>
<path d="M286.914 217.6V226H286.062V219.28L282.762 224.932H282.342L279.042 219.316V226H278.19V217.6H278.922L282.57 223.828L286.182 217.6H286.914ZM291.679 219.64C292.503 219.64 293.135 219.848 293.575 220.264C294.015 220.672 294.235 221.28 294.235 222.088V226H293.419V225.016C293.227 225.344 292.943 225.6 292.567 225.784C292.199 225.968 291.759 226.06 291.247 226.06C290.543 226.06 289.983 225.892 289.567 225.556C289.151 225.22 288.943 224.776 288.943 224.224C288.943 223.688 289.135 223.256 289.519 222.928C289.911 222.6 290.531 222.436 291.379 222.436H293.383V222.052C293.383 221.508 293.231 221.096 292.927 220.816C292.623 220.528 292.179 220.384 291.595 220.384C291.195 220.384 290.811 220.452 290.443 220.588C290.075 220.716 289.759 220.896 289.495 221.128L289.111 220.492C289.431 220.22 289.815 220.012 290.263 219.868C290.711 219.716 291.183 219.64 291.679 219.64ZM291.379 225.388C291.859 225.388 292.271 225.28 292.615 225.064C292.959 224.84 293.215 224.52 293.383 224.104V223.072H291.403C290.323 223.072 289.783 223.448 289.783 224.2C289.783 224.568 289.923 224.86 290.203 225.076C290.483 225.284 290.875 225.388 291.379 225.388ZM297.365 220.924C297.565 220.5 297.861 220.18 298.253 219.964C298.653 219.748 299.145 219.64 299.729 219.64V220.468L299.525 220.456C298.861 220.456 298.341 220.66 297.965 221.068C297.589 221.476 297.401 222.048 297.401 222.784V226H296.549V219.688H297.365V220.924Z" fill="#B9B9C3"/>
<path d="M279.877 83.368V86.668H284.221V87.436H279.877V91H278.989V82.6H284.749V83.368H279.877ZM291.688 88.108H286.408C286.456 88.764 286.708 89.296 287.164 89.704C287.62 90.104 288.196 90.304 288.892 90.304C289.284 90.304 289.644 90.236 289.972 90.1C290.3 89.956 290.584 89.748 290.824 89.476L291.304 90.028C291.024 90.364 290.672 90.62 290.248 90.796C289.832 90.972 289.372 91.06 288.868 91.06C288.22 91.06 287.644 90.924 287.14 90.652C286.644 90.372 286.256 89.988 285.976 89.5C285.696 89.012 285.556 88.46 285.556 87.844C285.556 87.228 285.688 86.676 285.952 86.188C286.224 85.7 286.592 85.32 287.056 85.048C287.528 84.776 288.056 84.64 288.64 84.64C289.224 84.64 289.748 84.776 290.212 85.048C290.676 85.32 291.04 85.7 291.304 86.188C291.568 86.668 291.7 87.22 291.7 87.844L291.688 88.108ZM288.64 85.372C288.032 85.372 287.52 85.568 287.104 85.96C286.696 86.344 286.464 86.848 286.408 87.472H290.884C290.828 86.848 290.592 86.344 290.176 85.96C289.768 85.568 289.256 85.372 288.64 85.372ZM296.686 84.64C297.278 84.64 297.814 84.776 298.294 85.048C298.774 85.312 299.15 85.688 299.422 86.176C299.694 86.664 299.83 87.22 299.83 87.844C299.83 88.468 299.694 89.024 299.422 89.512C299.15 90 298.774 90.38 298.294 90.652C297.814 90.924 297.278 91.06 296.686 91.06C296.158 91.06 295.682 90.948 295.258 90.724C294.842 90.5 294.506 90.176 294.25 89.752V91H293.434V82.096H294.286V85.888C294.55 85.48 294.886 85.172 295.294 84.964C295.71 84.748 296.174 84.64 296.686 84.64ZM296.626 90.304C297.066 90.304 297.466 90.204 297.826 90.004C298.186 89.796 298.466 89.504 298.666 89.128C298.874 88.752 298.978 88.324 298.978 87.844C298.978 87.364 298.874 86.936 298.666 86.56C298.466 86.184 298.186 85.896 297.826 85.696C297.466 85.488 297.066 85.384 296.626 85.384C296.178 85.384 295.774 85.488 295.414 85.696C295.062 85.896 294.782 86.184 294.574 86.56C294.374 86.936 294.274 87.364 294.274 87.844C294.274 88.324 294.374 88.752 294.574 89.128C294.782 89.504 295.062 89.796 295.414 90.004C295.774 90.204 296.178 90.304 296.626 90.304Z" fill="#B9B9C3"/>
<path d="M143.163 12.072C142.683 12.072 142.239 11.968 141.831 11.76C141.423 11.552 141.091 11.256 140.835 10.872L141.363 10.272C141.827 10.96 142.431 11.304 143.175 11.304C144.215 11.304 144.735 10.688 144.735 9.456V4.368H141.663V3.6H145.611V9.42C145.611 10.3 145.403 10.964 144.987 11.412C144.579 11.852 143.971 12.072 143.163 12.072ZM150.302 5.64C151.126 5.64 151.758 5.848 152.198 6.264C152.638 6.672 152.858 7.28 152.858 8.088V12H152.042V11.016C151.85 11.344 151.566 11.6 151.19 11.784C150.822 11.968 150.382 12.06 149.87 12.06C149.166 12.06 148.606 11.892 148.19 11.556C147.774 11.22 147.566 10.776 147.566 10.224C147.566 9.688 147.758 9.256 148.142 8.928C148.534 8.6 149.154 8.436 150.002 8.436H152.006V8.052C152.006 7.508 151.854 7.096 151.55 6.816C151.246 6.528 150.802 6.384 150.218 6.384C149.818 6.384 149.434 6.452 149.066 6.588C148.698 6.716 148.382 6.896 148.118 7.128L147.734 6.492C148.054 6.22 148.438 6.012 148.886 5.868C149.334 5.716 149.806 5.64 150.302 5.64ZM150.002 11.388C150.482 11.388 150.894 11.28 151.238 11.064C151.582 10.84 151.838 10.52 152.006 10.104V9.072H150.026C148.946 9.072 148.406 9.448 148.406 10.2C148.406 10.568 148.546 10.86 148.826 11.076C149.106 11.284 149.498 11.388 150.002 11.388ZM158.388 5.64C159.18 5.64 159.808 5.872 160.272 6.336C160.744 6.792 160.98 7.46 160.98 8.34V12H160.128V8.424C160.128 7.768 159.964 7.268 159.636 6.924C159.308 6.58 158.84 6.408 158.232 6.408C157.552 6.408 157.012 6.612 156.612 7.02C156.22 7.42 156.024 7.976 156.024 8.688V12H155.172V5.688H155.988V6.852C156.22 6.468 156.54 6.172 156.948 5.964C157.364 5.748 157.844 5.64 158.388 5.64Z" fill="#B9B9C3"/>
<g filter="url(#filter0_d_26676_21032)">
<path fill-rule="evenodd" clip-rule="evenodd" d="M151.999 56L202.005 130.826L236 206.34L157.436 202.26L55 214L133.773 144.977L151.999 56Z" fill="#7367F0"/>
</g>
<g filter="url(#filter1_d_26676_21032)">
<path fill-rule="evenodd" clip-rule="evenodd" d="M69 109.123L150.906 78L224 114.901L218.922 197.241L150.906 242L131.169 167.55L69 109.123Z" fill="#00CFE8"/>
</g>
</g>
<defs>
<filter id="filter0_d_26676_21032" x="43" y="44" width="205" height="182" filterUnits="userSpaceOnUse" color-interpolation-filters="sRGB">
<feFlood flood-opacity="0" result="BackgroundImageFix"/>
<feColorMatrix in="SourceAlpha" type="matrix" values="0 0 0 0 0 0 0 0 0 0 0 0 0 0 0 0 0 0 127 0" result="hardAlpha"/>
<feOffset/>
<feGaussianBlur stdDeviation="6"/>
<feColorMatrix type="matrix" values="0 0 0 0 0 0 0 0 0 0 0 0 0 0 0 0 0 0 0.3 0"/>
<feBlend mode="normal" in2="BackgroundImageFix" result="effect1_dropShadow_26676_21032"/>
<feBlend mode="normal" in="SourceGraphic" in2="effect1_dropShadow_26676_21032" result="shape"/>
</filter>
<filter id="filter1_d_26676_21032" x="49" y="58" width="195" height="204" filterUnits="userSpaceOnUse" color-interpolation-filters="sRGB">
<feFlood flood-opacity="0" result="BackgroundImageFix"/>
<feColorMatrix in="SourceAlpha" type="matrix" values="0 0 0 0 0 0 0 0 0 0 0 0 0 0 0 0 0 0 127 0" result="hardAlpha"/>
<feOffset/>
<feGaussianBlur stdDeviation="10"/>
<feColorMatrix type="matrix" values="0 0 0 0 0 0 0 0 0 0 0 0 0 0 0 0 0 0 0.3 0"/>
<feBlend mode="normal" in2="BackgroundImageFix" result="effect1_dropShadow_26676_21032"/>
<feBlend mode="normal" in="SourceGraphic" in2="effect1_dropShadow_26676_21032" result="shape"/>
</filter>
<clipPath id="clip0_26676_21032">
<rect width="301" height="314" fill="white"/>
</clipPath>
</defs>
</svg>
