<svg width="15" height="15" viewBox="0 0 15 15" fill="none" xmlns="http://www.w3.org/2000/svg">
<path fill-rule="evenodd" clip-rule="evenodd" d="M14.6483 7.44012C14.6483 11.2221 11.4837 14.2601 7.54411 14.2601C3.60452 14.2601 0.439941 11.2221 0.439941 7.44012C0.439941 3.65812 3.60452 0.620117 7.54411 0.620117C11.4837 0.620117 14.6483 3.65812 14.6483 7.44012ZM10.5795 7.87412L7.99619 10.3541C7.93161 10.4161 7.86702 10.4781 7.80244 10.4781C7.73786 10.5401 7.60869 10.5401 7.54411 10.5401C7.47952 10.5401 7.35036 10.5401 7.28577 10.4781C7.22119 10.4781 7.15661 10.4161 7.09202 10.3541L4.50869 7.87412C4.25036 7.62612 4.25036 7.25412 4.50869 7.00612C4.76702 6.75812 5.15452 6.75812 5.41286 7.00612L6.89827 8.43212V4.96012C6.89827 4.58812 7.15661 4.34012 7.54411 4.34012C7.93161 4.34012 8.18994 4.58812 8.18994 4.96012V8.43212L9.67536 7.00612C9.93369 6.75812 10.3212 6.75812 10.5795 7.00612C10.8379 7.25412 10.8379 7.62612 10.5795 7.87412ZM7.54411 1.86012C10.7733 1.86012 13.3566 4.34012 13.3566 7.44012C13.3566 10.5401 10.7733 13.0201 7.54411 13.0201C4.31494 13.0201 1.73161 10.5401 1.73161 7.44012C1.73161 4.34012 4.31494 1.86012 7.54411 1.86012Z" fill="#00CFE8"/>
</svg>
