<svg width="19" height="14" viewBox="0 0 19 14" fill="none" xmlns="http://www.w3.org/2000/svg">
<path fill-rule="evenodd" clip-rule="evenodd" d="M9.2555 0.25C14.8822 0.25 18.0332 6.4 18.1832 6.7C18.2583 6.85 18.2583 7.15 18.1832 7.3C18.0332 7.6 14.8822 13.75 9.2555 13.75C3.95932 13.75 0.856562 8.30136 0.38516 7.47355L0.385156 7.47354L0.385144 7.47352C0.355731 7.42187 0.336565 7.38822 0.327752 7.375C0.252729 7.15 0.252729 6.925 0.327752 6.7C0.477798 6.4 3.62877 0.25 9.2555 0.25ZM1.82821 7C2.57844 8.2 5.20425 12.25 9.2555 12.25C13.3067 12.25 15.9326 8.2 16.6828 7C15.9326 5.8 13.3067 1.75 9.2555 1.75C5.20425 1.75 2.50342 5.8 1.82821 7ZM9.25549 4C7.60498 4 6.25456 5.35 6.25456 7C6.25456 8.65 7.60498 10 9.25549 10C10.906 10 12.2564 8.65 12.2564 7C12.2564 5.35 10.906 4 9.25549 4ZM7.75503 7C7.75503 7.825 8.43024 8.5 9.25549 8.5C10.0807 8.5 10.756 7.825 10.756 7C10.756 6.175 10.0807 5.5 9.25549 5.5C8.43024 5.5 7.75503 6.175 7.75503 7Z" fill="black"/>
</svg>
