<svg width="17" height="16" viewBox="0 0 17 16" fill="none" xmlns="http://www.w3.org/2000/svg">
<path d="M16.7616 4.00004V8.00004C16.7616 8.40004 16.4954 8.66671 16.0961 8.66671C15.6968 8.66671 15.4306 8.40004 15.4306 8.00004V5.60004L10.2399 10.8C9.97368 11.0667 9.5744 11.0667 9.3082 10.8L6.44663 7.93337L1.92136 12.4667C1.78826 12.6 1.65517 12.6667 1.45552 12.6667C1.25588 12.6667 1.12278 12.6 0.989684 12.4667C0.723491 12.2 0.723491 11.8 0.989684 11.5334L5.98079 6.53337C6.24699 6.26671 6.64628 6.26671 6.91247 6.53337L9.77404 9.40004L14.499 4.66671H12.1032C11.7039 4.66671 11.4377 4.40004 11.4377 4.00004C11.4377 3.60004 11.7039 3.33337 12.1032 3.33337H16.0961C16.1627 3.33337 16.2958 3.33337 16.3623 3.40004C16.4954 3.46671 16.6285 3.60004 16.695 3.73337C16.7616 3.80004 16.7616 3.93337 16.7616 4.00004Z" fill="black"/>
<mask id="mask0_0_5186" style="mask-type:luminance" maskUnits="userSpaceOnUse" x="0" y="3" width="17" height="10">
<path d="M16.7616 4.00004V8.00004C16.7616 8.40004 16.4954 8.66671 16.0961 8.66671C15.6968 8.66671 15.4306 8.40004 15.4306 8.00004V5.60004L10.2399 10.8C9.97368 11.0667 9.5744 11.0667 9.3082 10.8L6.44663 7.93337L1.92136 12.4667C1.78826 12.6 1.65517 12.6667 1.45552 12.6667C1.25588 12.6667 1.12278 12.6 0.989684 12.4667C0.723491 12.2 0.723491 11.8 0.989684 11.5334L5.98079 6.53337C6.24699 6.26671 6.64628 6.26671 6.91247 6.53337L9.77404 9.40004L14.499 4.66671H12.1032C11.7039 4.66671 11.4377 4.40004 11.4377 4.00004C11.4377 3.60004 11.7039 3.33337 12.1032 3.33337H16.0961C16.1627 3.33337 16.2958 3.33337 16.3623 3.40004C16.4954 3.46671 16.6285 3.60004 16.695 3.73337C16.7616 3.80004 16.7616 3.93337 16.7616 4.00004Z" fill="white"/>
</mask>
<g mask="url(#mask0_0_5186)">
<rect x="0.790039" width="15.9716" height="16" fill="#6E6B7B"/>
</g>
</svg>
