<svg width="15" height="15" viewBox="0 0 15 15" fill="none" xmlns="http://www.w3.org/2000/svg">
<path fill-rule="evenodd" clip-rule="evenodd" d="M14.6483 7.44C14.6483 7.812 14.3898 8.06 14.0022 8.06H7.5421C7.15449 8.06 6.89609 7.812 6.89609 7.44V1.24C6.89609 0.867995 7.15449 0.619995 7.5421 0.619995C11.4828 0.619995 14.6483 3.658 14.6483 7.44ZM14.0669 10.106C12.9686 12.71 10.32 14.26 7.54212 14.26C6.6377 14.26 5.66868 14.074 4.76426 13.702C1.14659 12.214 -0.53305 8.24599 1.01738 4.77399C1.728 3.16199 3.02003 1.85999 4.69966 1.17799C5.02267 1.05399 5.41028 1.17799 5.53948 1.48799C5.66868 1.79799 5.53948 2.16999 5.21647 2.29399C3.85984 2.91399 2.76162 3.96799 2.18021 5.26999C0.952782 8.12199 2.30941 11.408 5.28108 12.586C8.25274 13.764 11.6766 12.462 12.904 9.60999C13.0332 9.29999 13.4208 9.17599 13.7439 9.29999C14.0669 9.42399 14.1961 9.79599 14.0669 10.106ZM8.18814 1.92199C10.8368 2.16999 12.9686 4.21599 13.2917 6.81999H8.18814V1.92199Z" fill="green"/>
</svg>
