<svg width="15" height="14" viewBox="0 0 15 14" fill="none" xmlns="http://www.w3.org/2000/svg">
<path fill-rule="evenodd" clip-rule="evenodd" d="M14.6483 0.797978C14.6483 0.735978 14.6483 0.673978 14.5837 0.611978V0.549978C14.5837 0.487978 14.5191 0.425978 14.4545 0.363979C14.4222 0.332979 14.3899 0.317479 14.3577 0.301979C14.3254 0.286479 14.2931 0.270979 14.2608 0.239979H14.1962C14.1316 0.239979 14.067 0.239979 14.0024 0.177979V0.239979C13.9379 0.239979 13.8733 0.239979 13.8087 0.301979L0.892025 4.64198C0.633691 4.70398 0.439941 4.88998 0.439941 5.19998C0.439941 5.44798 0.569108 5.69598 0.827441 5.81998L6.38161 8.17598L8.83577 13.508C8.96494 13.756 9.15869 13.88 9.41702 13.88C9.67536 13.88 9.93369 13.694 9.99827 13.446L14.5191 1.04598C14.6483 0.983978 14.6483 0.921978 14.6483 0.797978ZM11.5483 2.34798L6.76913 6.93598L2.82954 5.26198L11.5483 2.34798ZM7.67329 7.80398L9.41704 11.586L12.4525 3.21598L7.67329 7.80398Z" fill="black"/>
</svg>
