<svg width="19" height="18" viewBox="0 0 19 18" fill="none" xmlns="http://www.w3.org/2000/svg">
<path fill-rule="evenodd" clip-rule="evenodd" d="M9.49984 5.25C10.3707 5.25 11.0832 4.575 11.0832 3.75C11.0832 2.925 10.3707 2.25 9.49984 2.25C8.629 2.25 7.9165 2.925 7.9165 3.75C7.9165 4.575 8.629 5.25 9.49984 5.25ZM11.0832 9C11.0832 9.825 10.3707 10.5 9.49984 10.5C8.629 10.5 7.9165 9.825 7.9165 9C7.9165 8.175 8.629 7.5 9.49984 7.5C10.3707 7.5 11.0832 8.175 11.0832 9ZM7.9165 14.25C7.9165 13.425 8.629 12.75 9.49984 12.75C10.3707 12.75 11.0832 13.425 11.0832 14.25C11.0832 15.075 10.3707 15.75 9.49984 15.75C8.629 15.75 7.9165 15.075 7.9165 14.25Z" fill="black"/>
<mask id="mask0_26676_21050" style="mask-type:luminance" maskUnits="userSpaceOnUse" x="7" y="2" width="5" height="14">
<path fill-rule="evenodd" clip-rule="evenodd" d="M9.49984 5.25C10.3707 5.25 11.0832 4.575 11.0832 3.75C11.0832 2.925 10.3707 2.25 9.49984 2.25C8.629 2.25 7.9165 2.925 7.9165 3.75C7.9165 4.575 8.629 5.25 9.49984 5.25ZM11.0832 9C11.0832 9.825 10.3707 10.5 9.49984 10.5C8.629 10.5 7.9165 9.825 7.9165 9C7.9165 8.175 8.629 7.5 9.49984 7.5C10.3707 7.5 11.0832 8.175 11.0832 9ZM7.9165 14.25C7.9165 13.425 8.629 12.75 9.49984 12.75C10.3707 12.75 11.0832 13.425 11.0832 14.25C11.0832 15.075 10.3707 15.75 9.49984 15.75C8.629 15.75 7.9165 15.075 7.9165 14.25Z" fill="white"/>
</mask>
<g mask="url(#mask0_26676_21050)">
<rect width="19" height="18" fill="#6E6B7B"/>
</g>
</svg>
