<svg width="20" height="18" viewBox="0 0 20 18" fill="none" xmlns="http://www.w3.org/2000/svg">
<path fill-rule="evenodd" clip-rule="evenodd" d="M14.0809 0.666687C15.4459 0.666687 16.7305 1.24424 17.694 2.23434C18.7378 3.22444 19.2998 4.62708 19.1392 6.02972C19.1392 7.43236 18.5772 8.835 17.6137 9.8251L10.5482 17.0858C10.3876 17.2508 10.227 17.3334 9.98612 17.3334C9.74525 17.3334 9.58467 17.2508 9.42409 17.0858L2.35853 9.8251C1.39504 8.835 0.833008 7.43236 0.833008 6.02972C0.833008 4.62708 1.39504 3.22444 2.43882 2.23434C4.44608 0.171637 7.73799 0.171637 9.74525 2.23434L10.0664 2.56438L10.3876 2.23434C11.3511 1.24424 12.716 0.666687 14.0809 0.666687ZM10.0664 15.3532L16.5699 8.66999C17.2926 7.92741 17.694 7.01982 17.694 6.02972C17.694 5.03962 17.2926 4.13203 16.6502 3.38946C15.9276 2.72939 15.0444 2.31685 14.0809 2.31685C13.0372 2.31685 12.154 2.72939 11.4314 3.38946L10.6284 4.29705C10.3073 4.62708 9.82554 4.62708 9.50438 4.29705L8.62119 3.38946C7.89857 2.64689 7.01538 2.31685 6.05189 2.31685C5.16869 2.31685 4.20521 2.64689 3.56289 3.38946C2.92056 4.13203 2.51911 5.03962 2.51911 6.02972C2.51911 7.01982 2.84027 7.92741 3.56289 8.66999L10.0664 15.3532Z" fill="red"/>
</svg>
