<svg width="14" height="14" viewBox="0 0 14 14" fill="none" xmlns="http://www.w3.org/2000/svg">
<path fill-rule="evenodd" clip-rule="evenodd" d="M12.6003 4.79305L7.35033 0.714353C7.11699 0.539552 6.82533 0.539552 6.65033 0.714353L1.40033 4.79305C1.22533 4.90959 1.16699 5.08439 1.16699 5.25919V11.6686C1.16699 12.6591 1.92533 13.4166 2.91699 13.4166H11.0837C12.0753 13.4166 12.8337 12.6591 12.8337 11.6686V5.25919C12.8337 5.08439 12.7753 4.90959 12.6003 4.79305ZM8.16699 7.58987V12.2512H5.83366V7.58987H8.16699ZM11.0837 12.2512C11.4337 12.2512 11.667 12.0182 11.667 11.6686V5.55053L7.00033 1.93796L2.33366 5.55053V11.6686C2.33366 12.0182 2.56699 12.2512 2.91699 12.2512H4.66699V7.0072C4.66699 6.6576 4.90033 6.42453 5.25033 6.42453H8.75032C9.10032 6.42453 9.33366 6.6576 9.33366 7.0072V12.2512H11.0837Z" fill="black"/>
<mask id="mask0_26597_11586" style="mask-type:luminance" maskUnits="userSpaceOnUse" x="1" y="0" width="12" height="14">
<path fill-rule="evenodd" clip-rule="evenodd" d="M12.6003 4.79305L7.35033 0.714353C7.11699 0.539552 6.82533 0.539552 6.65033 0.714353L1.40033 4.79305C1.22533 4.90959 1.16699 5.08439 1.16699 5.25919V11.6686C1.16699 12.6591 1.92533 13.4166 2.91699 13.4166H11.0837C12.0753 13.4166 12.8337 12.6591 12.8337 11.6686V5.25919C12.8337 5.08439 12.7753 4.90959 12.6003 4.79305ZM8.16699 7.58987V12.2512H5.83366V7.58987H8.16699ZM11.0837 12.2512C11.4337 12.2512 11.667 12.0182 11.667 11.6686V5.55053L7.00033 1.93796L2.33366 5.55053V11.6686C2.33366 12.0182 2.56699 12.2512 2.91699 12.2512H4.66699V7.0072C4.66699 6.6576 4.90033 6.42453 5.25033 6.42453H8.75032C9.10032 6.42453 9.33366 6.6576 9.33366 7.0072V12.2512H11.0837Z" fill="white"/>
</mask>
<g mask="url(#mask0_26597_11586)">
<rect width="14" height="14" fill="#7367F0"/>
</g>
</svg>
