<svg width="16" height="14" viewBox="0 0 16 14" fill="none" xmlns="http://www.w3.org/2000/svg">
<path fill-rule="evenodd" clip-rule="evenodd" d="M11.2648 0.333374C12.3568 0.333374 13.3845 0.79542 14.1553 1.5875C14.9903 2.37958 15.44 3.50169 15.3115 4.6238C15.3115 5.74592 14.8619 6.86803 14.0911 7.66011L8.43862 13.4687C8.31016 13.6007 8.18169 13.6667 7.989 13.6667C7.7963 13.6667 7.66783 13.6007 7.53937 13.4687L1.88692 7.66011C1.11613 6.86803 0.666504 5.74592 0.666504 4.6238C0.666504 3.50169 1.11613 2.37958 1.95115 1.5875C3.55696 -0.0626656 6.19049 -0.0626656 7.7963 1.5875L8.05323 1.85153L8.31016 1.5875C9.08095 0.79542 10.1729 0.333374 11.2648 0.333374ZM8.05323 12.0826L13.2561 6.73602C13.8341 6.14196 14.1553 5.41588 14.1553 4.6238C14.1553 3.83173 13.8341 3.10565 13.3203 2.51159C12.7422 1.98354 12.0356 1.65351 11.2648 1.65351C10.4298 1.65351 9.72327 1.98354 9.14518 2.51159L8.50286 3.23767C8.24593 3.50169 7.86053 3.50169 7.6036 3.23767L6.89705 2.51159C6.31896 1.91753 5.6124 1.65351 4.84161 1.65351C4.13505 1.65351 3.36427 1.91753 2.85041 2.51159C2.33655 3.10565 2.01539 3.83173 2.01539 4.6238C2.01539 5.41588 2.27232 6.14196 2.85041 6.73602L8.05323 12.0826Z" fill="gray"/>
</svg>
