<svg width="14" height="14" viewBox="0 0 14 14" fill="none" xmlns="http://www.w3.org/2000/svg">
<path fill-rule="evenodd" clip-rule="evenodd" d="M2.3335 0.333374H11.6668C12.8002 0.333374 13.6668 1.20004 13.6668 2.33337V11.6667C13.6668 12.8 12.8002 13.6667 11.6668 13.6667H2.3335C1.20016 13.6667 0.333496 12.8 0.333496 11.6667V2.33337C0.333496 1.20004 1.20016 0.333374 2.3335 0.333374ZM11.6668 1.66671H2.3335C1.9335 1.66671 1.66683 1.93337 1.66683 2.33337V4.33337H12.3335V2.33337C12.3335 1.93337 12.0668 1.66671 11.6668 1.66671ZM1.66683 11.6667V5.66671H4.3335V12.3334H2.3335C1.9335 12.3334 1.66683 12.0667 1.66683 11.6667ZM5.66683 12.3334H11.6668C12.0668 12.3334 12.3335 12.0667 12.3335 11.6667V5.66671H5.66683V12.3334Z" fill="gray"/>
</svg>
