<svg width="47" height="104" viewBox="0 0 47 104" fill="none" xmlns="http://www.w3.org/2000/svg">
<g id="Pot1">
<path id="Path" fill-rule="evenodd" clip-rule="evenodd" d="M36.4501 11L37 11.3749C32.8794 17.2648 30.2379 23.1286 28.596 29.5257L28.4655 30.0409C27.3589 34.4751 26.8601 38.1626 26.162 45.7252L25.8794 48.8052C25.8166 49.4749 25.758 50.0802 25.6998 50.6571L25.6649 51L25 50.9335L25.1049 49.8853L25.6553 43.9771C26.3045 37.2234 26.8277 33.729 27.9481 29.3636C29.5603 23.0824 32.1268 17.3056 36.0863 11.5255L36.4501 11Z" fill="#02B596"/>
<g id="Group 81">
<path id="Combined Shape" fill-rule="evenodd" clip-rule="evenodd" d="M40.5848 8.01209C41.4131 5.58408 41.4901 3.41493 41.0702 3.17247C40.6496 2.92963 38.8057 4.08575 37.1148 6.02254C36.1243 4.9029 35.0954 4.30048 34.777 4.43983C34.2631 4.66476 33.8586 7.71136 35.2145 10.2711L35.2248 10.2662C35.726 11.4458 37.2994 12.1889 38.4536 11.6344C41.0481 11.3023 43.3284 9.86313 43.3298 9.37778C43.3307 9.04985 42.1566 8.37988 40.5848 8.01209Z" fill="url(#paint0_linear_0_14147)"/>
<path id="Path 148" fill-rule="evenodd" clip-rule="evenodd" d="M32.0541 6.39177C34.3875 7.27104 36.1898 8.33523 36.6212 10.8799C39.9521 10.0674 41.0513 11.4572 42.9096 12.6592C41.0185 13.0186 38.5443 13.6267 35.8072 11.9907C33.4296 10.5079 32.7131 8.24979 32.0541 6.39177Z" fill="#02B596"/>
</g>
<g id="Group 81_2">
<path id="Combined Shape_2" fill-rule="evenodd" clip-rule="evenodd" d="M9.38329 11.9925C7.38499 10.3838 5.37301 9.56947 5.00154 9.88116C4.62949 10.1934 5.08526 12.3214 6.32691 14.5728C4.93605 15.1206 4.01808 15.8814 4.04014 16.2283C4.07573 16.7881 6.80023 18.2102 9.66925 17.8116L9.66821 17.8002C10.9482 17.7327 12.1846 16.5083 12.0583 15.2341C12.6335 12.6825 12.0611 10.0475 11.6055 9.88016C11.2976 9.7671 10.2665 10.6413 9.38329 11.9925Z" fill="url(#paint1_linear_0_14147)"/>
<path id="Path 148_2" fill-rule="evenodd" clip-rule="evenodd" d="M4.94294 19.4549C6.56725 17.563 8.18369 16.2333 10.7225 16.6983C11.0982 13.2903 12.7801 12.7328 14.5452 11.3977C14.2361 13.2976 13.6379 15.2126 11.1644 17.225C8.95787 18.9521 6.91429 19.4712 4.94294 19.4549Z" fill="#02B596"/>
</g>
<path id="Path_2" fill-rule="evenodd" clip-rule="evenodd" d="M10.469 17C15.2031 22.0543 18.3572 27.4406 20.4501 33.6136L20.6344 34.1659C22.0821 38.5737 22.8892 42.7642 23.8757 49.9932L24 50.9129L23.3607 51L23.1759 49.6392C22.1812 42.4241 21.357 38.2995 19.8397 33.8241C17.8303 27.8974 14.832 22.7116 10.3654 17.841L10 17.4468L10.469 17Z" fill="#02B596"/>
<path id="Path 151" fill-rule="evenodd" clip-rule="evenodd" d="M26 54C21.3527 37.1959 3 42.1132 3 42.1132C3 42.1132 16.7406 46.6696 23.7481 54H26Z" fill="#02D3AF"/>
<path id="Path 151_2" fill-rule="evenodd" clip-rule="evenodd" d="M27 53C31.6155 36.9528 47 39.2994 47 39.2994C47 39.2994 37.6562 46.7928 29.2366 53H27Z" fill="#02B596"/>
<path id="Path 151_3" fill-rule="evenodd" clip-rule="evenodd" d="M24.8774 52.5353C26.1446 40.204 37.3926 33.7056 37.3926 33.7056C37.3926 33.7056 31.7488 46.6308 26.4863 52.2492L24.8774 52.5353Z" fill="#02D3AF"/>
<path id="Path 114" fill-rule="evenodd" clip-rule="evenodd" d="M23.9848 53C22.5305 48.4675 21.0838 42.1368 20 36C25.3577 38.3238 27.0786 47.5817 25.3577 53H23.9848Z" fill="#02B596"/>
<g id="Group 82">
<path id="Rectangle" fill-rule="evenodd" clip-rule="evenodd" d="M14.1565 52.1943C14.072 51.0355 14.9893 50.0488 16.1512 50.0488H35.8488C37.0107 50.0488 37.928 51.0355 37.8435 52.1943L34.2434 101.544C34.1671 102.589 33.2968 103.398 32.2487 103.398H19.7513C18.7032 103.398 17.8329 102.589 17.7566 101.544L14.1565 52.1943Z" fill="#7367F0"/>
<mask id="mask0_0_14147" style="mask-type:luminance" maskUnits="userSpaceOnUse" x="14" y="50" width="24" height="54">
<path id="Rectangle_2" fill-rule="evenodd" clip-rule="evenodd" d="M14.1565 52.1943C14.072 51.0355 14.9893 50.0488 16.1512 50.0488H35.8488C37.0107 50.0488 37.928 51.0355 37.8435 52.1943L34.2434 101.544C34.1671 102.589 33.2968 103.398 32.2487 103.398H19.7513C18.7032 103.398 17.8329 102.589 17.7566 101.544L14.1565 52.1943Z" fill="white"/>
</mask>
<g mask="url(#mask0_0_14147)">
<path id="Rectangle_3" fill-rule="evenodd" clip-rule="evenodd" d="M10.7568 48.6987H19.8379C14.2105 69.518 31.151 83.8313 19.8379 104.651H10.7568V48.6987Z" fill="#968BFF"/>
</g>
</g>
</g>
<defs>
<linearGradient id="paint0_linear_0_14147" x1="38.4925" y1="0.949055" x2="33.3973" y2="9.77413" gradientUnits="userSpaceOnUse">
<stop stop-color="#FE62BE"/>
<stop offset="1" stop-color="#FDB3A8"/>
</linearGradient>
<linearGradient id="paint1_linear_0_14147" x1="2.03059" y1="11.543" x2="8.5808" y2="19.3492" gradientUnits="userSpaceOnUse">
<stop stop-color="#FE62BE"/>
<stop offset="1" stop-color="#FDB3A8"/>
</linearGradient>
</defs>
</svg>
