<svg width="56" height="115" viewBox="0 0 56 115" fill="none" xmlns="http://www.w3.org/2000/svg">
<g id="Pot5">
<g id="Group 39">
<path id="Rectangle" fill-rule="evenodd" clip-rule="evenodd" d="M0.782227 44.7815C7.2702 41.9995 14.7939 44.8861 17.7562 51.2937L19.819 55.7558C13.331 58.5377 5.80731 55.6512 2.84504 49.2435L0.782227 44.7815Z" fill="#65E09C"/>
<path id="Path" fill-rule="evenodd" clip-rule="evenodd" d="M9.96104 47.7167C16.372 52.073 20.5293 56.9275 22.4451 62.2792C24.3702 67.657 25.1589 76.6721 24.8007 89.3066C24.7952 89.5023 24.9554 89.6652 25.1585 89.6705C25.3617 89.6759 25.5308 89.5216 25.5364 89.326C25.8968 76.6129 25.1018 67.5262 23.1408 62.0482C21.1704 56.5439 16.9145 51.5742 10.3853 47.1376C10.2193 47.0248 9.98967 47.0629 9.87251 47.2229C9.75535 47.3828 9.79499 47.6039 9.96104 47.7167Z" fill="#28C76F"/>
<path id="Rectangle_2" fill-rule="evenodd" clip-rule="evenodd" d="M55.2808 41.7935C48.8937 38.9251 41.3837 41.6571 38.3325 47.9588L35.995 52.7864C42.382 55.6547 49.892 52.9228 52.9433 46.6211L55.2808 41.7935Z" fill="#65E09C"/>
<g id="Group 88">
<path id="Rectangle_3" d="M5.01758 30.03C11.1135 28.7343 17.1056 32.6256 18.4014 38.7216L19.2971 42.9357C13.2012 44.2314 7.20904 40.3401 5.91332 34.2441L5.01758 30.03Z" fill="#65E09C"/>
<path id="Path_2" fill-rule="evenodd" clip-rule="evenodd" d="M9.45572 33.7562C14.1146 36.8515 17.2542 40.2063 18.8831 43.8169L18.9831 44.0441L19.0838 44.2833C20.7499 48.3246 23.4701 58.9247 27.2298 76.0432C27.2717 76.2344 27.4667 76.3541 27.6652 76.3106C27.8637 76.2671 27.9906 76.0769 27.9486 75.8857L27.4828 73.774L26.9382 71.33C23.5387 56.1626 21.0826 46.9058 19.5574 43.5249C17.8696 39.7836 14.6404 36.3331 9.87829 33.1693C9.7123 33.059 9.48314 33.101 9.36645 33.2631C9.24976 33.4252 9.28973 33.646 9.45572 33.7562Z" fill="#28C76F"/>
</g>
<path id="Rectangle_4" fill-rule="evenodd" clip-rule="evenodd" d="M46.0596 26.3884C39.3377 26.2754 33.7946 31.6282 33.6728 38.3499L33.579 43.525C40.3008 43.638 45.8439 38.2852 45.9658 31.5635L46.0596 26.3884Z" fill="#65E09C"/>
<path id="Path_3" fill-rule="evenodd" clip-rule="evenodd" d="M41.6507 28.6901C37.3289 34.746 34.1711 40.5912 32.1786 46.2266C30.1895 51.8522 28.2056 60.5398 26.2236 72.2962C26.191 72.4894 26.3272 72.6715 26.5278 72.7028C26.7284 72.7342 26.9174 72.603 26.95 72.4098L27.1936 70.9804L27.3608 70.0173C29.1999 59.5045 31.0389 51.6486 32.8752 46.4551C34.8448 40.8847 37.9717 35.0965 42.2572 29.0915C42.3723 28.9302 42.3298 28.7096 42.1624 28.5987C41.9949 28.4879 41.7658 28.5288 41.6507 28.6901Z" fill="#28C76F"/>
<g id="Group 87">
<path id="Path_4" fill-rule="evenodd" clip-rule="evenodd" d="M32.2892 24.7234C32.2892 24.7234 28.7844 34.2572 27.2352 48.3009C25.686 62.3446 26.5899 76.3883 26.5899 76.3883L28.3001 76.5368C28.3001 76.5368 27.3817 60.1457 28.4848 48.363C29.588 36.5803 33.1443 24.7976 33.1443 24.7976L32.2892 24.7234Z" fill="#02B596"/>
<ellipse id="Oval" cx="34.0433" cy="19.9926" rx="5.62997" ry="8.28737" transform="rotate(14 34.0433 19.9926)" fill="#65E09C"/>
<ellipse id="Oval_2" cx="34.1706" cy="20.4969" rx="3.9165" ry="5.40174" transform="rotate(14 34.1706 20.4969)" fill="#28C76F"/>
<path id="Path_5" fill-rule="evenodd" clip-rule="evenodd" d="M33.7039 25.2346L36.8574 15.8369C37.0449 15.2782 36.7266 14.6789 36.1465 14.4983C35.5664 14.3178 34.9441 14.6243 34.7566 15.183L31.6031 24.5807C31.4156 25.1394 31.7339 25.7387 32.314 25.9193C32.8942 26.0998 33.5164 25.7933 33.7039 25.2346Z" fill="url(#paint0_linear_0_14210)"/>
</g>
<g id="Group 87_2">
<path id="Path_6" fill-rule="evenodd" clip-rule="evenodd" d="M15.3215 15.2675C15.3215 15.2675 19.8037 24.3827 22.8123 38.1875C25.821 51.9924 26.39 66.0536 26.39 66.0536L24.7047 66.3801C24.7047 66.3801 23.9048 49.9828 21.576 38.38C19.2473 26.7772 14.4789 15.4307 14.4789 15.4307L15.3215 15.2675Z" fill="#28C76F"/>
<ellipse id="Oval_3" cx="5.62997" cy="8.28737" rx="5.62997" ry="8.28737" transform="matrix(-0.939693 0.34202 0.34202 0.939693 15.5381 1.03296)" fill="#65E09C"/>
<ellipse id="Oval_4" cx="3.9165" cy="5.40174" rx="3.9165" ry="5.40174" transform="matrix(-0.939693 0.34202 0.34202 0.939693 14.8413 4.84521)" fill="#28C76F"/>
<path id="Path_7" fill-rule="evenodd" clip-rule="evenodd" d="M13.9678 15.9239L9.84921 6.90729C9.60436 6.37125 9.85828 5.74198 10.4164 5.50178C10.9744 5.26157 11.6253 5.5014 11.8702 6.03744L15.9887 15.054C16.2336 15.5901 15.9797 16.2193 15.4216 16.4595C14.8635 16.6997 14.2126 16.4599 13.9678 15.9239Z" fill="url(#paint1_linear_0_14210)"/>
</g>
<path id="Path_8" fill-rule="evenodd" clip-rule="evenodd" d="M51.8073 43.299C43.082 46.5593 36.9978 50.327 33.5577 54.6162C30.1179 58.9049 27.8449 65.5563 26.7238 74.5716C26.6997 74.766 26.8437 74.9424 27.0454 74.9656C27.2472 74.9889 27.4304 74.8502 27.4545 74.6559C28.5612 65.7564 30.7947 59.2204 34.1401 55.0494C37.4852 50.8788 43.4621 47.1775 52.0735 43.9598C52.263 43.889 52.357 43.6837 52.2835 43.5012C52.21 43.3187 51.9968 43.2282 51.8073 43.299Z" fill="#28C76F"/>
</g>
<path id="Path 151" fill-rule="evenodd" clip-rule="evenodd" d="M29.5 69C25.4588 56.0738 9.5 59.8563 9.5 59.8563C9.5 59.8563 21.4483 63.3612 27.5418 69H29.5Z" fill="#28C76F"/>
<path id="Path 151_2" fill-rule="evenodd" clip-rule="evenodd" d="M28.5 67C32.8848 53.2453 47.5 55.2566 47.5 55.2566C47.5 55.2566 38.6234 61.6795 30.6247 67H28.5Z" fill="#28C76F"/>
<path id="Path 151_3" fill-rule="evenodd" clip-rule="evenodd" d="M29.0277 70.3811C25.3086 57.9101 33.9836 47.1753 33.9836 47.1753C33.9836 47.1753 33.5439 61.9448 30.529 69.4703L29.0277 70.3811Z" fill="#28C76F"/>
<path id="Path 114" fill-rule="evenodd" clip-rule="evenodd" d="M25.149 68C23.4522 63.2009 21.7645 56.4978 20.5 50C26.7506 52.4605 28.7584 62.263 26.7506 68H25.149Z" fill="#65E09C"/>
<g id="Group">
<path id="Rectangle_5" fill-rule="evenodd" clip-rule="evenodd" d="M12.7548 64.2195C12.6483 63.0394 13.5777 62.0225 14.7626 62.0225H37.0892C38.2741 62.0225 39.2035 63.0394 39.0971 64.2195L34.6859 113.139C34.5922 114.178 33.7213 114.974 32.678 114.974H19.1738C18.1305 114.974 17.2596 114.178 17.1659 113.139L12.7548 64.2195Z" fill="#7367F0"/>
<mask id="mask0_0_14210" style="mask-type:luminance" maskUnits="userSpaceOnUse" x="12" y="62" width="28" height="53">
<path id="Rectangle_6" fill-rule="evenodd" clip-rule="evenodd" d="M12.7548 64.2195C12.6483 63.0394 13.5777 62.0225 14.7626 62.0225H37.0892C38.2741 62.0225 39.2035 63.0394 39.0971 64.2195L34.6859 113.139C34.5922 114.178 33.7213 114.974 32.678 114.974H19.1738C18.1305 114.974 17.2596 114.178 17.1659 113.139L12.7548 64.2195Z" fill="white"/>
</mask>
<g mask="url(#mask0_0_14210)">
<path id="Rectangle_7" fill-rule="evenodd" clip-rule="evenodd" d="M9.18408 61.062H19.0585C12.9395 83.5753 31.3598 92.9558 19.0585 115.469H9.18408V61.062Z" fill="#8B81EB"/>
</g>
</g>
</g>
<defs>
<linearGradient id="paint0_linear_0_14210" x1="32.3717" y1="13.6785" x2="32.3717" y2="25.9711" gradientUnits="userSpaceOnUse">
<stop stop-color="#FE62BE"/>
<stop offset="1" stop-color="#FDB3A8"/>
</linearGradient>
<linearGradient id="paint1_linear_0_14210" x1="14.0848" y1="4.29186" x2="15.3697" y2="16.5171" gradientUnits="userSpaceOnUse">
<stop stop-color="#FE62BE"/>
<stop offset="1" stop-color="#FDB3A8"/>
</linearGradient>
</defs>
</svg>
