<svg width="10" height="16" viewBox="0 0 10 16" fill="none" xmlns="http://www.w3.org/2000/svg">
<path fill-rule="evenodd" clip-rule="evenodd" d="M6.66683 7.33333H5.66683V4H8.3335C8.7335 4 9.00016 3.73333 9.00016 3.33333C9.00016 2.93333 8.7335 2.66667 8.3335 2.66667H5.66683V0.666667C5.66683 0.266667 5.40016 0 5.00016 0C4.60016 0 4.3335 0.266667 4.3335 0.666667V2.66667H3.3335C1.66683 2.66667 0.333496 4 0.333496 5.66667C0.333496 7.33333 1.66683 8.66667 3.3335 8.66667H4.3335V12H1.00016C0.600163 12 0.333496 12.2667 0.333496 12.6667C0.333496 13.0667 0.600163 13.3333 1.00016 13.3333H4.3335V15.3333C4.3335 15.7333 4.60016 16 5.00016 16C5.40016 16 5.66683 15.7333 5.66683 15.3333V13.3333H6.66683C8.3335 13.3333 9.66683 12 9.66683 10.3333C9.66683 8.66667 8.3335 7.33333 6.66683 7.33333ZM3.3335 7.33333C2.40016 7.33333 1.66683 6.6 1.66683 5.66667C1.66683 4.73333 2.40016 4 3.3335 4H4.3335V7.33333H3.3335ZM5.66683 12H6.66683C7.60016 12 8.3335 11.2667 8.3335 10.3333C8.3335 9.4 7.60016 8.66667 6.66683 8.66667H5.66683V12Z" fill="black"/>
</svg>
