<svg width="233" height="187" viewBox="0 0 233 187" fill="none" xmlns="http://www.w3.org/2000/svg">
<path d="M0.923828 132.971C0.923828 128.569 4.49252 125 8.89473 125C13.2969 125 16.8656 128.569 16.8656 132.971V187H0.923828V132.971Z" fill="#F8F8F8"/>
<path d="M36.793 90.9709C36.793 86.5687 40.3617 83 44.7639 83C49.1661 83 52.7348 86.5687 52.7348 90.9709V187H36.793V90.9709Z" fill="#F8F8F8"/>
<path d="M72.6621 7.9709C72.6621 3.56869 76.2308 0 80.633 0C85.0352 0 88.6039 3.56869 88.6039 7.9709V187H72.6621V7.9709Z" fill="#7367F0"/>
<path d="M108.531 54.9709C108.531 50.5687 112.1 47 116.502 47C120.904 47 124.473 50.5687 124.473 54.9709V187H108.531V54.9709Z" fill="#F8F8F8"/>
<path d="M144.4 90.9709C144.4 86.5687 147.969 83 152.371 83C156.773 83 160.342 86.5687 160.342 90.9709V187H144.4V90.9709Z" fill="#F8F8F8"/>
<path d="M180.27 132.971C180.27 128.569 183.838 125 188.24 125C192.643 125 196.211 128.569 196.211 132.971V187H180.27V132.971Z" fill="#F8F8F8"/>
<path d="M216.138 173.971C216.138 169.569 219.707 166 224.109 166C228.511 166 232.08 169.569 232.08 173.971V187H216.138V173.971Z" fill="#F8F8F8"/>
</svg>
