<svg width="1124" height="320" viewBox="0 0 1124 320" fill="none" xmlns="http://www.w3.org/2000/svg">
<rect width="1124" height="320" rx="6" fill="#7367F0" fill-opacity="0.12"/>
<mask id="mask0_0_13942" style="mask-type:luminance" maskUnits="userSpaceOnUse" x="0" y="0" width="1124" height="320">
<rect width="1124" height="320" rx="6" fill="white"/>
</mask>
<g mask="url(#mask0_0_13942)">
<g opacity="0.3">
<mask id="mask1_0_13942" style="mask-type:luminance" maskUnits="userSpaceOnUse" x="867" y="82" width="186" height="408">
<path fill-rule="evenodd" clip-rule="evenodd" d="M878.15 484.146C860.843 417.323 864.128 346.014 884.922 280.226C896.885 281.456 908.324 282.762 910.927 282.739C903.227 278.787 895.515 275.068 887.937 271.078C896.897 245.011 908.628 219.899 922.94 196.382C933.648 199.097 944.789 201.04 953.898 199.628C952.211 197.199 940.514 190.109 931.208 183.385C941.321 168.211 952.558 153.794 964.845 140.308C970.128 146.406 975.59 152.282 981.46 156.959C980.896 155.05 976.732 142.29 973.341 131.308C994.405 109.865 1018.97 91.1981 1047.56 82.7942C1048.49 82.5155 1049.43 82.252 1050.37 82C1053.2 109.083 1053.73 136.406 1052.04 163.584C1039.71 172.526 1027.76 182.931 1013.64 187.803C1026.16 183.488 1038.69 179.166 1051.21 174.848C1050.99 177.337 1050.77 179.826 1050.53 182.312C1047.93 208.322 1043.3 234.118 1036.74 259.413C1029.77 261.112 1023.92 262.12 1022.23 260.948C1026.13 263.659 1030.17 266.172 1034.31 268.493C1026.41 296.763 1016.07 324.338 1003.39 350.795C976.782 406.3 948.477 462.745 889.056 488.617C886.684 489.648 883.814 490.572 881.572 489.568L880.682 489.044C879.193 487.91 878.622 485.959 878.15 484.146Z" fill="white"/>
</mask>
<g mask="url(#mask1_0_13942)">
<path fill-rule="evenodd" clip-rule="evenodd" d="M1050.38 82C1053.2 109.083 1053.73 136.406 1052.04 163.584C1039.74 172.526 1027.83 182.931 1013.73 187.803C1026.23 183.488 1038.72 179.166 1051.21 174.848C1051 177.337 1050.78 179.826 1050.53 182.312C1047.95 208.322 1043.33 234.118 1036.78 259.413C1029.83 261.112 1024 262.12 1022.31 260.948C1026.2 263.659 1030.22 266.172 1034.35 268.493C1026.48 296.763 1016.16 324.338 1003.51 350.795C976.972 406.3 948.738 462.745 889.465 488.617C887.099 489.648 884.236 490.572 882 489.568C932.916 355.663 980.769 205.302 1047.57 82.7942C1048.5 82.5155 1049.44 82.252 1050.38 82Z" fill="#7367F0"/>
<path fill-rule="evenodd" clip-rule="evenodd" d="M881.527 490L880.639 489.478C879.16 488.346 878.587 486.399 878.116 484.588C860.862 417.893 864.137 346.72 884.867 281.057C896.793 282.284 908.196 283.587 910.792 283.564C903.115 279.62 895.427 275.908 887.872 271.926C896.805 245.908 908.5 220.844 922.767 197.372C933.442 200.082 944.549 202.021 953.629 200.611C951.948 198.188 940.287 191.111 931.009 184.4C941.092 169.255 952.293 154.865 964.543 141.404C969.81 147.49 975.255 153.356 981.106 158.024C980.545 156.118 976.393 143.382 973.012 132.422C994.012 111.016 1018.5 92.3879 1047 84C980.237 206.274 932.413 356.35 881.527 490Z" fill="#6C61DC"/>
<path fill-rule="evenodd" clip-rule="evenodd" d="M1015.37 138.953C1013.4 130.19 1012.42 121.195 1012.42 112.2C1012.42 98.1768 1014.8 84.1532 1019.51 71L1022.07 71.9838C1017.48 84.8154 1015.16 98.5098 1015.16 112.2C1015.16 120.009 1015.91 127.814 1017.43 135.457C1022.97 123.906 1028.66 112.432 1034.55 101.046C1038.24 93.9271 1042.12 86.5986 1047.94 80.7076L1049.96 82.7247C1044.53 88.2077 1040.75 95.2578 1037.08 102.365C1016.66 141.862 998.502 182.441 981.678 223.627C988.985 221.273 995.748 216.998 1002.39 212.621C1025.95 197.09 1048.75 180.424 1070.7 162.683L1072.49 164.909C1050.47 182.707 1027.59 199.43 1003.95 215.007C996.651 219.816 988.989 224.694 980.3 227.01C978.684 230.986 977.08 234.967 975.488 238.953C1013.32 227.681 1046.34 203.833 1078.3 179.941L1080 182.227C1047.42 206.574 1013.51 231.115 974.149 242.315C963.813 268.312 953.947 294.522 944.318 320.825C953.946 325.236 964.624 327.081 975.408 327.081C980.741 327.081 986.1 326.631 991.357 325.816C1007.79 323.284 1023.57 317.423 1039.3 311.533L1040.31 314.14C1024.58 320.03 1008.61 325.976 991.799 328.572C986.406 329.405 980.903 329.87 975.408 329.87C964.386 329.87 953.374 328 943.355 323.46C942.138 326.789 940.925 330.12 939.716 333.453C951.787 337.107 964.406 338.917 977.032 338.917C996.972 338.917 1016.92 334.404 1034.75 325.555L1036.02 328.077C1017.78 337.128 997.403 341.735 977.032 341.735C964.086 341.735 951.144 339.874 938.752 336.109C932.702 352.802 926.729 369.524 920.773 386.244C931.887 391.509 944.253 393.908 956.664 393.908C961.238 393.908 965.816 393.583 970.341 392.955C987.682 390.55 1004.29 383.882 1019.59 375.172L1021 377.634C1005.47 386.473 988.538 393.295 970.731 395.765C966.081 396.408 961.375 396.744 956.664 396.744C943.987 396.744 931.299 394.317 919.816 388.933C918.732 391.977 917.649 395.02 916.566 398.063C909.898 416.795 903.23 435.526 896.561 454.256C889.946 472.837 883.331 491.418 876.717 510L874.036 509.039L886.305 474.572L886.36 474.418C895.534 448.644 904.707 422.872 913.882 397.099C918.288 384.72 922.697 372.335 927.133 359.956C911.652 359.03 896.612 353.866 883.037 346.386C868.701 338.486 855.912 328.062 844 316.894L845.921 314.769C857.735 325.848 870.35 336.115 884.387 343.849C897.927 351.307 912.886 356.372 928.15 357.12C936.755 333.129 945.468 309.163 954.463 285.312C928.35 279.669 904.073 265.98 885.836 246.596L887.931 244.658C905.85 263.716 929.788 277.165 955.478 282.625C959.738 271.362 964.062 260.126 968.469 248.926C944.389 240.896 921.972 227.974 903 211.177L904.893 209.064C923.609 225.637 945.747 238.388 969.508 246.29C972.345 239.105 975.217 231.934 978.129 224.782L978.091 224.611L978.21 224.584C987.581 201.572 997.364 178.741 1007.72 156.173L1007.5 156.211C1003.71 134.313 1001.83 108.317 1001.69 86.1197L1004.5 86.1007C1004.63 106.896 1006.3 131.114 1009.65 151.989C1011.68 147.597 1013.74 143.216 1015.82 138.845L1015.37 138.953Z" fill="#8D84F0"/>
</g>
</g>
<g opacity="0.3">
<path fill-rule="evenodd" clip-rule="evenodd" d="M63.7921 50.2431C66.441 52.7128 68.1231 56.0549 69.5753 59.4057C71.2211 63.2144 79.192 84.839 78.628 94.1186C82.0648 102.147 85.3627 110.234 88.5208 118.375C88.8703 108.922 91.4172 97.2367 92.2614 94.1925C93.4575 89.8865 95.0407 85.5001 98.2331 82.3299C101.425 79.164 106.627 77.5705 110.62 79.6769C113.82 81.3594 115.55 85.0296 115.748 88.5981C115.946 92.1624 114.84 95.6673 113.562 99.0155C111.909 103.349 100.153 129.506 93.3437 131.145C96.8018 140.554 100.075 150.032 103.163 159.569C104.997 149.757 111.429 135.901 113.155 132.677C115.298 128.674 117.838 124.684 121.678 122.252C125.523 119.829 130.975 119.399 134.414 122.373C137.161 124.749 138.029 128.764 137.416 132.341C136.803 135.918 134.928 139.146 132.923 142.171C130.374 146.023 113.581 168.488 106.296 169.476C108.697 177.25 110.975 185.062 113.13 192.908C115.883 183.835 126.774 169.52 129.369 166.495C132.272 163.118 135.558 159.822 139.794 158.267C144.034 156.713 149.436 157.385 152.18 160.883C154.382 163.683 154.408 167.669 153.083 170.953C151.763 174.229 149.277 176.928 146.709 179.415C143.422 182.589 122.254 200.836 115.073 200.116C117.441 209.077 119.649 218.081 121.695 227.122C124.465 218.423 138.739 203.679 141.901 200.777C145.2 197.757 148.858 194.874 153.202 193.881C157.546 192.887 162.715 194.299 164.906 198.209C166.657 201.339 166.128 205.378 164.385 208.512C162.639 211.643 159.847 214.035 156.996 216.197C153.289 219.015 129.338 235.11 122.938 232.708C127.144 251.944 130.619 271.341 133.355 290.841C137.325 282.044 149.877 269.105 152.82 266.409C156.115 263.385 159.774 260.503 164.117 259.509C168.461 258.52 173.634 259.927 175.82 263.837C177.571 266.968 177.047 271.002 175.3 274.14C173.553 277.275 170.762 279.667 167.911 281.829C164.3 284.569 141.486 299.909 134.389 298.489C134.873 302.209 135.33 305.932 135.761 309.658C138.994 302.786 164.265 296.837 169.088 296.005C173.499 295.246 178.148 294.794 182.371 296.287C186.587 297.78 190.223 301.722 189.989 306.158C189.802 309.7 187.195 312.791 184.039 314.474C180.883 316.16 177.233 316.662 173.661 316.945C169.073 317.306 140.895 317.928 136.112 312.752C136.914 319.951 137.616 327.162 138.216 334.381C141.734 329.193 159.318 324.202 162.811 323.437C166.15 322.705 169.687 322.199 172.954 323.228C176.221 324.25 179.117 327.194 179.084 330.649C179.054 333.411 177.165 335.891 174.809 337.3C172.456 338.708 169.687 339.214 166.967 339.555C163.564 339.972 143.02 341.3 138.49 337.767C139.353 348.718 139.983 359.686 140.378 370.663C143.561 364.941 158.608 357.023 161.726 355.614C164.818 354.215 168.144 353.005 171.521 353.325C174.897 353.65 178.307 355.905 178.967 359.261C179.498 361.946 178.165 364.74 176.163 366.595C174.166 368.442 171.583 369.504 169.013 370.385C165.668 371.535 144.573 377.44 140.497 374.18C140.751 382.242 140.878 390.309 140.878 398.375C140.878 417.266 140.183 436.157 138.776 455L135.863 454.781C137.262 436.015 137.957 417.193 137.957 398.375C137.957 387.129 137.708 375.882 137.214 364.646C131.705 367.327 113.461 361.061 110.03 359.644C106.818 358.323 103.585 356.695 101.439 353.959C99.3021 351.231 98.5697 347.123 100.574 344.293C102.184 342.027 105.182 341.07 107.957 341.266C110.732 341.463 113.336 342.643 115.799 343.934C118.449 345.329 132.082 353.489 136.958 359.265C136.291 346.203 135.292 333.158 133.963 320.147C130.361 326.539 102.264 326.123 97.122 325.742C92.5597 325.41 87.8455 324.721 84.0515 322.281C80.2576 319.846 77.6661 315.216 79.0204 311.042C80.1056 307.702 83.4655 305.387 87.0164 304.537C90.5672 303.69 94.3048 304.089 97.9121 304.682C102.417 305.418 129.071 311.286 133.657 317.205C132.258 304.014 130.52 290.857 128.446 277.755C123.06 281.506 105.076 281.207 101.512 280.934C98.0218 280.662 94.4156 280.115 91.5159 278.164C88.6163 276.216 86.6301 272.511 87.6684 269.173C88.4957 266.497 91.0679 264.649 93.7822 263.968C96.4966 263.292 99.3575 263.606 102.115 264.085C105.158 264.603 121.423 268.33 127.589 272.458C125.725 261.187 123.613 249.956 121.253 238.778C116.133 243.273 94.3987 242.942 90.2221 242.641C86.2858 242.352 82.2225 241.77 78.9473 239.696C75.6766 237.626 73.4347 233.689 74.6038 230.142C75.5408 227.305 78.4394 225.335 81.5044 224.613C84.565 223.895 87.792 224.234 90.9007 224.732C94.4352 225.304 113.791 229.486 120.234 234.026C118.648 226.739 116.956 219.476 115.16 212.238C110.69 218.234 83.6074 217.824 78.5645 217.454C74.0065 217.122 69.2923 216.433 65.4983 213.993C61.7043 211.557 59.1084 206.926 60.4628 202.751C61.548 199.411 64.9079 197.091 68.4588 196.249C72.0097 195.402 75.7472 195.796 79.3546 196.39C83.5929 197.083 107.437 202.318 114.063 207.869C111.777 198.882 109.33 189.937 106.722 181.039C103.013 187.565 74.629 180.369 69.6329 178.771C65.3376 177.4 60.9781 175.636 57.9247 172.335C54.8713 169.037 53.4881 163.819 55.792 159.964C57.6335 156.875 61.4106 155.324 65.0207 155.29C68.6308 155.252 72.121 156.504 75.4399 157.915C79.1977 159.514 99.4147 169.476 105.38 176.51C102.804 167.914 100.077 159.363 97.2008 150.863C91.2742 155.468 66.3704 144.845 61.8893 142.599C57.8901 140.587 53.8781 138.179 51.3585 134.405C48.8389 130.628 48.2301 125.16 51.0245 121.599C53.2609 118.748 57.1756 117.726 60.7056 118.217C64.2398 118.7 67.4739 120.469 70.5178 122.377C73.4116 124.189 86.8412 133.659 93.9166 141.363C88.754 126.74 83.1466 112.275 77.0994 97.9952C77.0038 98.057 76.9034 98.1111 76.7979 98.157C69.784 101.217 53.6906 75.6172 51.1184 70.9078C48.9338 66.9147 46.9705 62.5916 47.0003 58.0211C47.0344 53.4507 49.5896 48.6111 53.8951 47.3307C57.3445 46.3063 61.1475 47.769 63.7921 50.2431ZM165.732 250.104C168.578 247.946 171.374 245.554 173.121 242.419C174.863 239.285 175.388 235.246 173.637 232.121C171.45 228.206 166.282 226.799 161.938 227.788C157.59 228.782 153.932 231.664 150.637 234.688C146.754 238.253 126.106 259.677 130.598 265.831C134.62 271.336 161.765 253.114 165.732 250.104Z" fill="#7367F0"/>
</g>
<g opacity="0.1">
<mask id="mask2_0_13942" style="mask-type:luminance" maskUnits="userSpaceOnUse" x="206" y="148" width="123" height="211">
<path fill-rule="evenodd" clip-rule="evenodd" d="M329 148H206V359H329V148Z" fill="white"/>
</mask>
<g mask="url(#mask2_0_13942)">
<path fill-rule="evenodd" clip-rule="evenodd" d="M314.575 284.528C317.217 280.801 319.912 276.272 318.424 271.969C315.607 263.82 303.308 266.382 295.647 270.507C309.087 259.399 323.195 247.329 328.205 230.754C328.857 228.599 329.339 226.282 328.699 224.127C327.434 219.88 322.122 217.902 317.716 218.749C313.313 219.598 309.643 222.493 306.169 225.293C319.985 204.262 324.012 177.241 316.918 153.179C316.356 151.27 315.55 149.174 313.719 148.349C311.703 147.441 309.368 148.467 307.466 149.583C295.328 156.686 286.008 168.345 281.828 181.643C284.182 173.279 271.608 167.033 264.012 171.417C256.419 175.798 253.904 185.403 253.299 194.063C252.7 202.72 253.196 211.876 249.027 219.523C251.692 214.916 246.605 208.716 241.235 209.003C235.865 209.291 231.68 214.172 230.451 219.335C229.223 224.5 230.282 229.894 231.339 235.092C232.83 242.408 234.32 249.721 235.808 257.031C233.192 257.367 230.457 256.671 228.329 255.131C219.774 260.412 219.526 272.397 220.27 282.327C222.171 307.758 223.506 337.139 237.851 359C269.385 348.209 296.206 310.4 314.575 284.528Z" fill="#7367F0"/>
<path opacity="0.633952" fill-rule="evenodd" clip-rule="evenodd" d="M298.097 186.231C298.057 186.385 298.013 186.546 297.968 186.711C297.494 188.457 296.883 190.706 298.537 191.031C301.19 191.548 302.192 181.803 299.508 182.003C298.777 182.055 298.581 183.415 298.402 184.666C298.316 185.265 298.233 185.839 298.097 186.231ZM276.276 201.538C276.246 201.707 276.217 201.871 276.191 202.028C276.089 202.435 276.067 203.011 276.044 203.613V203.613C275.997 204.871 275.945 206.24 275.142 206.409C272.201 207.021 272.133 197.295 275.127 197.387C276.996 197.444 276.59 199.751 276.276 201.538ZM235.364 274.865C235.335 275.028 235.307 275.187 235.282 275.339C235.179 275.746 235.158 276.323 235.135 276.924C235.088 278.182 235.036 279.552 234.233 279.719C231.292 280.334 231.224 270.605 234.218 270.697C236.09 270.754 235.68 273.076 235.364 274.865ZM243.764 246.113C243.696 245.971 243.627 245.822 243.556 245.668C242.786 244 241.787 241.836 240.026 242.941C237.205 244.704 243.043 252.681 245.395 250.367C246.038 249.735 245.271 248.573 244.568 247.507C244.232 246.998 243.911 246.511 243.764 246.113ZM268.101 291.821L268.101 291.822C268.173 291.976 268.242 292.127 268.311 292.27C268.458 292.669 268.779 293.157 269.115 293.667C269.818 294.734 270.582 295.894 269.941 296.526C267.587 298.838 261.751 290.863 264.572 289.098C266.33 287.997 267.329 290.154 268.101 291.821ZM294.994 238.473L294.994 238.473C293.32 239.283 291.147 240.335 292.346 241.98C294.271 244.61 302.174 238.668 299.71 236.51C299.038 235.921 297.881 236.708 296.821 237.429C296.316 237.772 295.833 238.1 295.435 238.258C295.294 238.328 295.146 238.4 294.994 238.473ZM285.907 304.54C286.058 304.467 286.204 304.397 286.344 304.327C286.744 304.169 287.228 303.84 287.734 303.497C288.793 302.776 289.948 301.992 290.619 302.579C293.083 304.737 285.18 310.681 283.255 308.048C282.055 306.402 284.231 305.35 285.907 304.54ZM260.505 227.881L260.505 227.88L260.504 227.879L260.504 227.878C260.43 227.723 260.357 227.572 260.287 227.429C260.133 227.032 259.808 226.55 259.467 226.046C258.752 224.985 257.971 223.828 258.586 223.174C260.833 220.782 266.746 228.699 264.026 230.548C262.332 231.701 261.302 229.548 260.505 227.881ZM265.37 197.092C265.33 197.246 265.286 197.406 265.242 197.571C264.767 199.317 264.156 201.569 265.808 201.892C268.463 202.408 269.465 192.664 266.781 192.864C266.048 192.917 265.853 194.277 265.674 195.527L265.674 195.527L265.674 195.527L265.674 195.527V195.527C265.588 196.126 265.506 196.699 265.37 197.092ZM285.035 274.595C285.189 274.524 285.339 274.455 285.481 274.387C285.88 274.239 286.369 273.917 286.879 273.581C287.948 272.877 289.113 272.11 289.754 272.74C292.102 275.05 284.107 280.885 282.309 278.108C281.186 276.374 283.358 275.37 285.035 274.595ZM296.853 210.335L296.853 210.335C295.176 211.111 293.005 212.115 294.127 213.849C295.928 216.625 303.918 210.79 301.573 208.481C300.93 207.851 299.767 208.617 298.699 209.32C298.188 209.657 297.699 209.979 297.299 210.127C297.157 210.195 297.008 210.264 296.855 210.335L296.854 210.335L296.853 210.335ZM255.032 320.755L255.034 320.754C255.188 320.682 255.338 320.613 255.481 320.545C255.88 320.397 256.369 320.075 256.879 319.739C257.948 319.035 259.113 318.268 259.754 318.898C262.102 321.208 254.107 327.043 252.309 324.266C251.187 322.531 253.355 321.529 255.032 320.755ZM238.515 299.624C238.456 299.481 238.396 299.331 238.335 299.176C237.668 297.504 236.803 295.336 234.796 296.258C231.581 297.733 237.093 305.899 239.858 303.858C240.612 303.299 239.898 302.114 239.244 301.029C238.933 300.512 238.635 300.018 238.515 299.624ZM259.922 258.999C259.839 259.153 259.759 259.303 259.683 259.446C259.444 259.816 259.24 260.38 259.028 260.968C258.582 262.203 258.097 263.548 257.159 263.451C253.737 263.096 256.703 253.416 259.966 254.488C262.002 255.155 260.827 257.327 259.922 258.999Z" fill="#F0F6F4"/>
<path fill-rule="evenodd" clip-rule="evenodd" d="M291 202.707C266.353 262.501 247.163 324.619 233.759 388L232 387.617C245.428 324.123 264.652 261.899 289.341 202L291 202.707Z" fill="#163B53"/>
</g>
</g>
</g>
</svg>
